M48
; DRILL file {KiCad 8.0.5} date 2025-02-25T21:47:43-0500
; FORMAT={-:-/ absolute / inch / decimal}
; #@! TF.CreationDate,2025-02-25T21:47:43-05:00
; #@! TF.GenerationSoftware,Kicad,Pcbnew,8.0.5
; #@! TF.FileFunction,Plated,1,2,PTH
FMAT,2
INCH
; #@! TA.AperFunction,Plated,PTH,ViaDrill
T1C0.0118
; #@! TA.AperFunction,Plated,PTH,ComponentDrill
T2C0.0236
; #@! TA.AperFunction,Plated,PTH,ComponentDrill
T3C0.0315
; #@! TA.AperFunction,Plated,PTH,ComponentDrill
T4C0.0394
; #@! TA.AperFunction,Plated,PTH,ComponentDrill
T5C0.0472
; #@! TA.AperFunction,Plated,PTH,ComponentDrill
T6C0.0669
%
G90
G05
T1
X3.6Y-3.025
X3.6Y-4.75
X3.625Y-3.8
X3.975Y-5.475
X4.3Y-3.025
X4.3Y-5.5
X4.325Y-3.75
X4.325Y-4.75
X4.85Y-3.525
X4.875Y-3.55
X4.925Y-3.6
X4.95Y-3.675
X4.975Y-3.125
X4.975Y-3.575
X5.0Y-4.075
X5.05Y-3.975
X5.175Y-4.95
X5.225Y-4.85
X5.55Y-3.25
T2
X4.8713Y-2.95
X4.95Y-2.95
T3
X4.6767Y-2.275
X4.9767Y-2.275
X5.075Y-4.8
X5.075Y-4.9
X5.075Y-5.0
X5.075Y-5.1
X5.075Y-5.2
X5.075Y-5.3
X5.075Y-5.4
X5.075Y-5.5
X5.375Y-4.8
X5.375Y-4.9
X5.375Y-5.0
X5.375Y-5.1
X5.375Y-5.2
X5.375Y-5.3
X5.375Y-5.4
X5.375Y-5.5
T4
X4.8813Y-2.5762
X4.8813Y-2.6762
X5.2Y-2.45
X5.2Y-2.55
X5.2Y-2.65
X5.2Y-2.75
X5.2Y-2.85
X5.2Y-2.95
X5.2Y-3.05
X5.2Y-3.15
X5.2Y-3.25
X5.2Y-3.35
X5.2Y-3.45
X5.2Y-3.55
X5.2Y-3.65
X5.2Y-3.75
X5.2Y-3.85
X5.2Y-3.95
X5.2Y-4.05
X5.2Y-4.15
X5.2Y-4.25
X5.2Y-4.35
X5.3Y-2.45
X5.3Y-2.55
X5.3Y-2.65
X5.3Y-2.75
X5.3Y-2.85
X5.3Y-2.95
X5.3Y-3.05
X5.3Y-3.15
X5.3Y-3.25
X5.3Y-3.35
X5.3Y-3.45
X5.3Y-3.55
X5.3Y-3.65
X5.3Y-3.75
X5.3Y-3.85
X5.3Y-3.95
X5.3Y-4.05
X5.3Y-4.15
X5.3Y-4.25
X5.3Y-4.35
X5.7016Y-2.6506
X5.8Y-2.6506
X5.8984Y-2.6506
X6.2766Y-2.6506
X6.375Y-2.6506
X6.4734Y-2.6506
X6.8766Y-2.6506
X6.975Y-2.6506
X7.0734Y-2.6506
X7.4783Y-2.6506
X7.5768Y-2.6506
X7.6752Y-2.6506
T5
X3.4063Y-4.2843
X3.4063Y-4.4811
X3.4063Y-5.0281
X3.4063Y-5.225
X3.4071Y-2.5516
X3.4071Y-2.7484
X3.4071Y-3.2955
X3.4071Y-3.4923
X3.8984Y-4.2843
X3.8984Y-4.4811
X3.8984Y-5.0281
X3.8984Y-5.225
X3.8992Y-2.5516
X3.8992Y-2.7484
X3.8992Y-3.2955
X3.8992Y-3.4923
X4.0579Y-4.2843
X4.0579Y-4.4811
X4.0579Y-5.0281
X4.0579Y-5.225
X4.0587Y-2.5516
X4.0587Y-2.7484
X4.0587Y-3.2955
X4.0587Y-3.4923
X4.55Y-4.2843
X4.55Y-4.4811
X4.55Y-5.0281
X4.55Y-5.225
X4.5508Y-2.5516
X4.5508Y-2.7484
X4.5508Y-3.2955
X4.5508Y-3.4923
X5.7561Y-2.8372
X5.8939Y-2.8372
X5.8939Y-5.7309
X6.3061Y-2.8394
X6.4439Y-2.8394
X6.4439Y-5.7331
X6.9061Y-2.8372
X7.0439Y-2.8372
X7.0439Y-5.7309
X7.5061Y-2.8372
X7.6439Y-2.8372
X7.6439Y-5.7309
T6
X5.6596Y-3.0006
X5.6596Y-5.5675
X5.9904Y-3.0478
X5.9904Y-5.5203
X6.2096Y-3.0028
X6.2096Y-5.5697
X6.5404Y-3.05
X6.5404Y-5.5224
X6.8096Y-3.0006
X6.8096Y-5.5675
X7.1404Y-3.0478
X7.1404Y-5.5203
X7.4096Y-3.0006
X7.4096Y-5.5675
X7.7404Y-3.0478
X7.7404Y-5.5203
M30
