M48
; DRILL file {KiCad 8.0.5} date 2025-02-25T21:47:43-0500
; FORMAT={-:-/ absolute / inch / decimal}
; #@! TF.CreationDate,2025-02-25T21:47:43-05:00
; #@! TF.GenerationSoftware,Kicad,Pcbnew,8.0.5
; #@! TF.FileFunction,NonPlated,1,2,NPTH
FMAT,2
INCH
; #@! TA.AperFunction,NonPlated,NPTH,ComponentDrill
T1C0.0709
; #@! TA.AperFunction,NonPlated,NPTH,ComponentDrill
T2C0.0866
; #@! TA.AperFunction,NonPlated,NPTH,ComponentDrill
T3C0.1575
%
G90
G05
T1
X3.6524Y-4.2055
X3.6524Y-4.5598
X3.6524Y-4.9494
X3.6524Y-5.3037
X3.6531Y-2.4728
X3.6531Y-2.8272
X3.6531Y-3.2167
X3.6531Y-3.5711
X4.3039Y-4.2055
X4.3039Y-4.5598
X4.3039Y-4.9494
X4.3039Y-5.3037
X4.3047Y-2.4728
X4.3047Y-2.8272
X4.3047Y-3.2167
X4.3047Y-3.5711
T2
X5.6268Y-2.375
X5.9732Y-2.375
X6.2018Y-2.375
X6.5482Y-2.375
X6.8018Y-2.375
X7.1482Y-2.375
X7.4035Y-2.375
X7.75Y-2.375
T3
X3.4Y-2.175
X3.4Y-5.675
X8.025Y-2.175
X8.025Y-5.675
M30
