%TF.GenerationSoftware,KiCad,Pcbnew,8.0.5*%
%TF.CreationDate,2025-02-25T23:02:00-05:00*%
%TF.ProjectId,gamepad,67616d65-7061-4642-9e6b-696361645f70,rev?*%
%TF.SameCoordinates,Original*%
%TF.FileFunction,Soldermask,Top*%
%TF.FilePolarity,Negative*%
%FSLAX46Y46*%
G04 Gerber Fmt 4.6, Leading zero omitted, Abs format (unit mm)*
G04 Created by KiCad (PCBNEW 8.0.5) date 2025-02-25 23:02:00*
%MOMM*%
%LPD*%
G01*
G04 APERTURE LIST*
G04 Aperture macros list*
%AMRoundRect*
0 Rectangle with rounded corners*
0 $1 Rounding radius*
0 $2 $3 $4 $5 $6 $7 $8 $9 X,Y pos of 4 corners*
0 Add a 4 corners polygon primitive as box body*
4,1,4,$2,$3,$4,$5,$6,$7,$8,$9,$2,$3,0*
0 Add four circle primitives for the rounded corners*
1,1,$1+$1,$2,$3*
1,1,$1+$1,$4,$5*
1,1,$1+$1,$6,$7*
1,1,$1+$1,$8,$9*
0 Add four rect primitives between the rounded corners*
20,1,$1+$1,$2,$3,$4,$5,0*
20,1,$1+$1,$4,$5,$6,$7,0*
20,1,$1+$1,$6,$7,$8,$9,0*
20,1,$1+$1,$8,$9,$2,$3,0*%
G04 Aperture macros list end*
%ADD10RoundRect,0.250000X-0.400000X-0.625000X0.400000X-0.625000X0.400000X0.625000X-0.400000X0.625000X0*%
%ADD11C,4.000000*%
%ADD12C,1.800000*%
%ADD13O,2.900000X1.700000*%
%ADD14R,1.750000X1.750000*%
%ADD15C,1.750000*%
%ADD16C,2.700000*%
%ADD17R,1.200000X1.200000*%
%ADD18C,1.200000*%
%ADD19R,1.700000X1.700000*%
%ADD20O,1.700000X1.700000*%
%ADD21R,1.600000X1.600000*%
%ADD22O,1.600000X1.600000*%
%ADD23C,1.600000*%
G04 APERTURE END LIST*
D10*
%TO.C,R7*%
X104140000Y-76835000D03*
X107240000Y-76835000D03*
%TD*%
D11*
%TO.C,REF\u002A\u002A*%
X203835000Y-144145000D03*
%TD*%
D12*
%TO.C,SW6*%
X92790000Y-81705000D03*
X92790000Y-90705000D03*
D13*
X86540000Y-83705000D03*
X99040000Y-83705000D03*
X86540000Y-88705000D03*
X99040000Y-88705000D03*
%TD*%
D11*
%TO.C,REF\u002A\u002A*%
X86360000Y-144145000D03*
%TD*%
D12*
%TO.C,SW5*%
X92790000Y-62810000D03*
X92790000Y-71810000D03*
D13*
X86540000Y-64810000D03*
X99040000Y-64810000D03*
X86540000Y-69810000D03*
X99040000Y-69810000D03*
%TD*%
D14*
%TO.C,RV2*%
X178915000Y-72065000D03*
D15*
X175415000Y-72065000D03*
X178915000Y-145565000D03*
D16*
X172965000Y-76215000D03*
X181365000Y-77415000D03*
X181365000Y-140215000D03*
X172965000Y-141415000D03*
%TD*%
D12*
%TO.C,SW4*%
X109320000Y-125715000D03*
X109320000Y-134715000D03*
D13*
X103070000Y-127715000D03*
X115570000Y-127715000D03*
X103070000Y-132715000D03*
X115570000Y-132715000D03*
%TD*%
D12*
%TO.C,SW2*%
X92770000Y-125715000D03*
X92770000Y-134715000D03*
D13*
X86520000Y-127715000D03*
X99020000Y-127715000D03*
X86520000Y-132715000D03*
X99020000Y-132715000D03*
%TD*%
D10*
%TO.C,R5*%
X86360000Y-76835000D03*
X89460000Y-76835000D03*
%TD*%
D14*
%TO.C,RV1*%
X194155000Y-72065000D03*
D15*
X190655000Y-72065000D03*
X194155000Y-145565000D03*
D16*
X188205000Y-76215000D03*
X196605000Y-77415000D03*
X196605000Y-140215000D03*
X188205000Y-141415000D03*
%TD*%
D10*
%TO.C,R3*%
X104140000Y-120650000D03*
X107240000Y-120650000D03*
%TD*%
D12*
%TO.C,SW3*%
X109320000Y-106820000D03*
X109320000Y-115820000D03*
D13*
X103070000Y-108820000D03*
X115570000Y-108820000D03*
X103070000Y-113820000D03*
X115570000Y-113820000D03*
%TD*%
D12*
%TO.C,SW7*%
X109340000Y-62810000D03*
X109340000Y-71810000D03*
D13*
X103090000Y-64810000D03*
X115590000Y-64810000D03*
X103090000Y-69810000D03*
X115590000Y-69810000D03*
%TD*%
D12*
%TO.C,SW1*%
X92770000Y-106820000D03*
X92770000Y-115820000D03*
D13*
X86520000Y-108820000D03*
X99020000Y-108820000D03*
X86520000Y-113820000D03*
X99020000Y-113820000D03*
%TD*%
D10*
%TO.C,R2*%
X96875000Y-139065000D03*
X99975000Y-139065000D03*
%TD*%
D11*
%TO.C,RV7*%
X157525000Y-60325000D03*
X166325000Y-60325000D03*
D12*
X164425000Y-67325000D03*
X161925000Y-67325000D03*
X159425000Y-67325000D03*
%TD*%
D10*
%TO.C,R4*%
X103860000Y-140105000D03*
X106960000Y-140105000D03*
%TD*%
D11*
%TO.C,REF\u002A\u002A*%
X203835000Y-55245000D03*
%TD*%
D14*
%TO.C,RV3*%
X163675000Y-72120000D03*
D15*
X160175000Y-72120000D03*
X163675000Y-145620000D03*
D16*
X157725000Y-76270000D03*
X166125000Y-77470000D03*
X166125000Y-140270000D03*
X157725000Y-141470000D03*
%TD*%
D17*
%TO.C,C1*%
X125190000Y-72390000D03*
D18*
X123190000Y-72390000D03*
%TD*%
D19*
%TO.C,J1*%
X122550000Y-66675000D03*
D20*
X125090000Y-66675000D03*
%TD*%
D11*
%TO.C,RV5*%
X188050000Y-60325000D03*
X196850000Y-60325000D03*
D12*
X194950000Y-67325000D03*
X192450000Y-67325000D03*
X189950000Y-67325000D03*
%TD*%
D11*
%TO.C,RV6*%
X172765000Y-60325000D03*
X181565000Y-60325000D03*
D12*
X179665000Y-67325000D03*
X177165000Y-67325000D03*
X174665000Y-67325000D03*
%TD*%
D21*
%TO.C,SW9*%
X119422500Y-59055000D03*
D22*
X127042500Y-59055000D03*
%TD*%
D11*
%TO.C,RV8*%
X142920000Y-60325000D03*
X151720000Y-60325000D03*
D12*
X149820000Y-67325000D03*
X147320000Y-67325000D03*
X144820000Y-67325000D03*
%TD*%
D14*
%TO.C,RV4*%
X149705000Y-72065000D03*
D15*
X146205000Y-72065000D03*
X149705000Y-145565000D03*
D16*
X143755000Y-76215000D03*
X152155000Y-77415000D03*
X152155000Y-140215000D03*
X143755000Y-141415000D03*
%TD*%
D11*
%TO.C,REF\u002A\u002A*%
X86360000Y-55245000D03*
%TD*%
D19*
%TO.C,J2*%
X131445000Y-64135000D03*
D20*
X133985000Y-64135000D03*
X131445000Y-66675000D03*
X133985000Y-66675000D03*
X131445000Y-69215000D03*
X133985000Y-69215000D03*
X131445000Y-71755000D03*
X133985000Y-71755000D03*
X131445000Y-74295000D03*
X133985000Y-74295000D03*
X131445000Y-76835000D03*
X133985000Y-76835000D03*
X131445000Y-79375000D03*
X133985000Y-79375000D03*
X131445000Y-81915000D03*
X133985000Y-81915000D03*
X131445000Y-84455000D03*
X133985000Y-84455000D03*
X131445000Y-86995000D03*
X133985000Y-86995000D03*
X131445000Y-89535000D03*
X133985000Y-89535000D03*
X131445000Y-92075000D03*
X133985000Y-92075000D03*
X131445000Y-94615000D03*
X133985000Y-94615000D03*
X131445000Y-97155000D03*
X133985000Y-97155000D03*
X131445000Y-99695000D03*
X133985000Y-99695000D03*
X131445000Y-102235000D03*
X133985000Y-102235000D03*
X131445000Y-104775000D03*
X133985000Y-104775000D03*
X131445000Y-107315000D03*
X133985000Y-107315000D03*
X131445000Y-109855000D03*
X133985000Y-109855000D03*
X131445000Y-112395000D03*
X133985000Y-112395000D03*
%TD*%
D12*
%TO.C,SW8*%
X109340000Y-81705000D03*
X109340000Y-90705000D03*
D13*
X103090000Y-83705000D03*
X115590000Y-83705000D03*
X103090000Y-88705000D03*
X115590000Y-88705000D03*
%TD*%
D10*
%TO.C,R1*%
X86360000Y-120650000D03*
X89460000Y-120650000D03*
%TD*%
%TO.C,R6*%
X86080000Y-96290000D03*
X89180000Y-96290000D03*
%TD*%
%TO.C,R8*%
X103860000Y-96290000D03*
X106960000Y-96290000D03*
%TD*%
D21*
%TO.C,U1*%
X136525000Y-139700000D03*
D23*
X136525000Y-137160000D03*
X136525000Y-134620000D03*
X136525000Y-132080000D03*
X136525000Y-129540000D03*
X136525000Y-127000000D03*
X136525000Y-124460000D03*
X136525000Y-121920000D03*
X128905000Y-121920000D03*
X128905000Y-124460000D03*
X128905000Y-127000000D03*
X128905000Y-129540000D03*
X128905000Y-132080000D03*
X128905000Y-134620000D03*
X128905000Y-137160000D03*
X128905000Y-139700000D03*
%TD*%
M02*
