%TF.GenerationSoftware,KiCad,Pcbnew,8.0.5*%
%TF.CreationDate,2025-02-25T21:47:22-05:00*%
%TF.ProjectId,gamepad,67616d65-7061-4642-9e6b-696361645f70,rev?*%
%TF.SameCoordinates,Original*%
%TF.FileFunction,Soldermask,Bot*%
%TF.FilePolarity,Negative*%
%FSLAX46Y46*%
G04 Gerber Fmt 4.6, Leading zero omitted, Abs format (unit mm)*
G04 Created by KiCad (PCBNEW 8.0.5) date 2025-02-25 21:47:22*
%MOMM*%
%LPD*%
G01*
G04 APERTURE LIST*
%ADD10C,4.000000*%
%ADD11C,1.800000*%
%ADD12O,2.900000X1.700000*%
%ADD13R,1.750000X1.750000*%
%ADD14C,1.750000*%
%ADD15C,2.700000*%
%ADD16R,1.600000X1.600000*%
%ADD17C,1.600000*%
%ADD18R,1.200000X1.200000*%
%ADD19C,1.200000*%
%ADD20R,1.700000X1.700000*%
%ADD21O,1.700000X1.700000*%
%ADD22O,1.600000X1.600000*%
G04 APERTURE END LIST*
D10*
%TO.C,REF\u002A\u002A*%
X203835000Y-144145000D03*
%TD*%
%TO.C,REF\u002A\u002A*%
X203835000Y-55245000D03*
%TD*%
%TO.C,REF\u002A\u002A*%
X86360000Y-144145000D03*
%TD*%
%TO.C,REF\u002A\u002A*%
X86360000Y-55245000D03*
%TD*%
D11*
%TO.C,SW6*%
X92790000Y-81705000D03*
X92790000Y-90705000D03*
D12*
X86540000Y-83705000D03*
X99040000Y-83705000D03*
X86540000Y-88705000D03*
X99040000Y-88705000D03*
%TD*%
D11*
%TO.C,SW5*%
X92790000Y-62810000D03*
X92790000Y-71810000D03*
D12*
X86540000Y-64810000D03*
X99040000Y-64810000D03*
X86540000Y-69810000D03*
X99040000Y-69810000D03*
%TD*%
D13*
%TO.C,RV2*%
X178915000Y-72065000D03*
D14*
X175415000Y-72065000D03*
X178915000Y-145565000D03*
D15*
X172965000Y-76215000D03*
X181365000Y-77415000D03*
X181365000Y-140215000D03*
X172965000Y-141415000D03*
%TD*%
D11*
%TO.C,SW4*%
X109320000Y-125715000D03*
X109320000Y-134715000D03*
D12*
X103070000Y-127715000D03*
X115570000Y-127715000D03*
X103070000Y-132715000D03*
X115570000Y-132715000D03*
%TD*%
D11*
%TO.C,SW2*%
X92770000Y-125715000D03*
X92770000Y-134715000D03*
D12*
X86520000Y-127715000D03*
X99020000Y-127715000D03*
X86520000Y-132715000D03*
X99020000Y-132715000D03*
%TD*%
D13*
%TO.C,RV1*%
X194155000Y-72065000D03*
D14*
X190655000Y-72065000D03*
X194155000Y-145565000D03*
D15*
X188205000Y-76215000D03*
X196605000Y-77415000D03*
X196605000Y-140215000D03*
X188205000Y-141415000D03*
%TD*%
D11*
%TO.C,SW3*%
X109320000Y-106820000D03*
X109320000Y-115820000D03*
D12*
X103070000Y-108820000D03*
X115570000Y-108820000D03*
X103070000Y-113820000D03*
X115570000Y-113820000D03*
%TD*%
D11*
%TO.C,SW7*%
X109340000Y-62810000D03*
X109340000Y-71810000D03*
D12*
X103090000Y-64810000D03*
X115590000Y-64810000D03*
X103090000Y-69810000D03*
X115590000Y-69810000D03*
%TD*%
D11*
%TO.C,SW1*%
X92770000Y-106820000D03*
X92770000Y-115820000D03*
D12*
X86520000Y-108820000D03*
X99020000Y-108820000D03*
X86520000Y-113820000D03*
X99020000Y-113820000D03*
%TD*%
D10*
%TO.C,RV7*%
X157525000Y-60325000D03*
X166325000Y-60325000D03*
D11*
X164425000Y-67325000D03*
X161925000Y-67325000D03*
X159425000Y-67325000D03*
%TD*%
D16*
%TO.C,U1*%
X136525000Y-139700000D03*
D17*
X136525000Y-137160000D03*
X136525000Y-134620000D03*
X136525000Y-132080000D03*
X136525000Y-129540000D03*
X136525000Y-127000000D03*
X136525000Y-124460000D03*
X136525000Y-121920000D03*
X128905000Y-121920000D03*
X128905000Y-124460000D03*
X128905000Y-127000000D03*
X128905000Y-129540000D03*
X128905000Y-132080000D03*
X128905000Y-134620000D03*
X128905000Y-137160000D03*
X128905000Y-139700000D03*
%TD*%
D13*
%TO.C,RV3*%
X163675000Y-72120000D03*
D14*
X160175000Y-72120000D03*
X163675000Y-145620000D03*
D15*
X157725000Y-76270000D03*
X166125000Y-77470000D03*
X166125000Y-140270000D03*
X157725000Y-141470000D03*
%TD*%
D18*
%TO.C,C1*%
X125730000Y-74930000D03*
D19*
X123730000Y-74930000D03*
%TD*%
D20*
%TO.C,J1*%
X123985000Y-65435000D03*
D21*
X123985000Y-67975000D03*
%TD*%
D10*
%TO.C,RV6*%
X172765000Y-60325000D03*
X181565000Y-60325000D03*
D11*
X179665000Y-67325000D03*
X177165000Y-67325000D03*
X174665000Y-67325000D03*
%TD*%
D16*
%TO.C,SW9*%
X118787500Y-57785000D03*
D22*
X126407500Y-57785000D03*
%TD*%
D10*
%TO.C,RV8*%
X142920000Y-60325000D03*
X151720000Y-60325000D03*
D11*
X149820000Y-67325000D03*
X147320000Y-67325000D03*
X144820000Y-67325000D03*
%TD*%
D13*
%TO.C,RV4*%
X149705000Y-72065000D03*
D14*
X146205000Y-72065000D03*
X149705000Y-145565000D03*
D15*
X143755000Y-76215000D03*
X152155000Y-77415000D03*
X152155000Y-140215000D03*
X143755000Y-141415000D03*
%TD*%
D20*
%TO.C,J2*%
X134620000Y-62230000D03*
D21*
X132080000Y-62230000D03*
X134620000Y-64770000D03*
X132080000Y-64770000D03*
X134620000Y-67310000D03*
X132080000Y-67310000D03*
X134620000Y-69850000D03*
X132080000Y-69850000D03*
X134620000Y-72390000D03*
X132080000Y-72390000D03*
X134620000Y-74930000D03*
X132080000Y-74930000D03*
X134620000Y-77470000D03*
X132080000Y-77470000D03*
X134620000Y-80010000D03*
X132080000Y-80010000D03*
X134620000Y-82550000D03*
X132080000Y-82550000D03*
X134620000Y-85090000D03*
X132080000Y-85090000D03*
X134620000Y-87630000D03*
X132080000Y-87630000D03*
X134620000Y-90170000D03*
X132080000Y-90170000D03*
X134620000Y-92710000D03*
X132080000Y-92710000D03*
X134620000Y-95250000D03*
X132080000Y-95250000D03*
X134620000Y-97790000D03*
X132080000Y-97790000D03*
X134620000Y-100330000D03*
X132080000Y-100330000D03*
X134620000Y-102870000D03*
X132080000Y-102870000D03*
X134620000Y-105410000D03*
X132080000Y-105410000D03*
X134620000Y-107950000D03*
X132080000Y-107950000D03*
X134620000Y-110490000D03*
X132080000Y-110490000D03*
%TD*%
D11*
%TO.C,SW8*%
X109340000Y-81705000D03*
X109340000Y-90705000D03*
D12*
X103090000Y-83705000D03*
X115590000Y-83705000D03*
X103090000Y-88705000D03*
X115590000Y-88705000D03*
%TD*%
D10*
%TO.C,RV5*%
X188050000Y-60325000D03*
X196850000Y-60325000D03*
D11*
X194950000Y-67325000D03*
X192450000Y-67325000D03*
X189950000Y-67325000D03*
%TD*%
M02*
