%TF.GenerationSoftware,KiCad,Pcbnew,8.0.5*%
%TF.CreationDate,2025-02-25T23:02:00-05:00*%
%TF.ProjectId,gamepad,67616d65-7061-4642-9e6b-696361645f70,rev?*%
%TF.SameCoordinates,Original*%
%TF.FileFunction,Legend,Top*%
%TF.FilePolarity,Positive*%
%FSLAX46Y46*%
G04 Gerber Fmt 4.6, Leading zero omitted, Abs format (unit mm)*
G04 Created by KiCad (PCBNEW 8.0.5) date 2025-02-25 23:02:00*
%MOMM*%
%LPD*%
G01*
G04 APERTURE LIST*
%ADD10C,0.100000*%
%ADD11C,0.150000*%
%ADD12C,0.120000*%
G04 APERTURE END LIST*
D10*
G36*
X201765589Y-125902861D02*
G01*
X203505575Y-125902861D01*
X203505575Y-125840334D01*
X201765589Y-124675785D01*
X201765589Y-123770132D01*
X203801598Y-125120307D01*
X206330000Y-123780879D01*
X206330000Y-124749057D01*
X204230488Y-125835450D01*
X204236350Y-125902861D01*
X206330000Y-125902861D01*
X206330000Y-126786043D01*
X201765589Y-126786043D01*
X201765589Y-125902861D01*
G37*
G36*
X201578011Y-121341381D02*
G01*
X202265799Y-121341381D01*
X202265799Y-122371109D01*
X201578011Y-122371109D01*
X201578011Y-121341381D01*
G37*
G36*
X202703482Y-121419539D02*
G01*
X205764333Y-121419539D01*
X205764333Y-120440614D01*
X206330000Y-120440614D01*
X206330000Y-123287508D01*
X205764333Y-123287508D01*
X205764333Y-122291974D01*
X203269148Y-122291974D01*
X203269148Y-123287508D01*
X202703482Y-123287508D01*
X202703482Y-121419539D01*
G37*
G36*
X201765589Y-117100348D02*
G01*
X202331256Y-117100348D01*
X202331256Y-118630286D01*
X202387920Y-118793440D01*
X202537397Y-118920446D01*
X202724502Y-118997276D01*
X202755261Y-119005443D01*
X202955688Y-119034280D01*
X203014159Y-119035729D01*
X205086315Y-119035729D01*
X205284571Y-119018436D01*
X205338374Y-119007397D01*
X205524721Y-118942198D01*
X205555261Y-118926308D01*
X205707669Y-118796371D01*
X205764333Y-118630286D01*
X205764333Y-117836985D01*
X204329162Y-117836985D01*
X204329162Y-118591207D01*
X203763496Y-118591207D01*
X203763496Y-117031960D01*
X206330000Y-117031960D01*
X206330000Y-118996650D01*
X206302978Y-119195368D01*
X206234256Y-119354221D01*
X206111914Y-119510948D01*
X205971451Y-119626796D01*
X205789734Y-119726692D01*
X205592756Y-119797718D01*
X205578709Y-119801674D01*
X205374693Y-119843749D01*
X205173530Y-119861721D01*
X205093154Y-119863224D01*
X203020020Y-119863224D01*
X202810237Y-119852582D01*
X202612707Y-119820657D01*
X202525673Y-119798743D01*
X202337045Y-119732493D01*
X202160260Y-119641588D01*
X202128046Y-119620935D01*
X201976615Y-119496615D01*
X201862309Y-119348360D01*
X201784102Y-119158217D01*
X201765589Y-118996650D01*
X201765589Y-117100348D01*
G37*
G36*
X206330000Y-115712072D02*
G01*
X206300379Y-115914863D01*
X206245980Y-116041311D01*
X206122659Y-116204694D01*
X206012484Y-116300209D01*
X205838224Y-116402406D01*
X205658820Y-116469225D01*
X205458322Y-116511300D01*
X205256470Y-116527328D01*
X205211367Y-116527843D01*
X205010104Y-116516623D01*
X204806914Y-116479701D01*
X204767822Y-116469225D01*
X204573161Y-116397173D01*
X204405366Y-116300209D01*
X204252248Y-116164437D01*
X204163077Y-116041311D01*
X204090477Y-115853131D01*
X204076127Y-115712072D01*
X204076127Y-115098534D01*
X204641793Y-115098534D01*
X204653574Y-115301133D01*
X204669148Y-115385764D01*
X204760006Y-115563572D01*
X204923161Y-115653454D01*
X205120972Y-115677282D01*
X205164473Y-115677878D01*
X205368331Y-115669978D01*
X205574533Y-115634868D01*
X205743244Y-115529539D01*
X205764333Y-115453175D01*
X205764333Y-114395115D01*
X204641793Y-114395115D01*
X204641793Y-115098534D01*
X204076127Y-115098534D01*
X204076127Y-114389253D01*
X203756657Y-114389253D01*
X203552504Y-114401829D01*
X203367822Y-114465457D01*
X203275315Y-114641311D01*
X203269148Y-114727285D01*
X203269148Y-116072575D01*
X202703482Y-116072575D01*
X202703482Y-114456664D01*
X202711866Y-114259854D01*
X202742377Y-114066425D01*
X202754284Y-114020935D01*
X202835858Y-113842401D01*
X202933070Y-113731751D01*
X203104700Y-113624349D01*
X203277941Y-113568597D01*
X203473176Y-113535704D01*
X203685736Y-113520225D01*
X203824068Y-113517794D01*
X206330000Y-113517794D01*
X206330000Y-115712072D01*
G37*
G36*
X202703482Y-111032379D02*
G01*
X202713767Y-110824330D01*
X202750708Y-110621364D01*
X202757215Y-110598604D01*
X202841777Y-110417700D01*
X202940886Y-110306489D01*
X203114268Y-110199087D01*
X203286734Y-110143335D01*
X203495370Y-110108607D01*
X203706946Y-110094319D01*
X203824068Y-110092533D01*
X206330000Y-110092533D01*
X206330000Y-110851639D01*
X203881709Y-110851639D01*
X203678988Y-110858509D01*
X203580802Y-110869225D01*
X203394200Y-110927843D01*
X203297480Y-111035310D01*
X203269148Y-111195533D01*
X203269148Y-111330355D01*
X206330000Y-111330355D01*
X206330000Y-111921423D01*
X203269148Y-111921423D01*
X203269148Y-112321004D01*
X206330000Y-112321004D01*
X206330000Y-113108443D01*
X202703482Y-113108443D01*
X202703482Y-111032379D01*
G37*
G36*
X203980246Y-106713185D02*
G01*
X204184475Y-106738436D01*
X204380785Y-106790078D01*
X204570531Y-106888806D01*
X204586106Y-106900767D01*
X204724606Y-107056594D01*
X204800626Y-107236723D01*
X204828421Y-107430163D01*
X204829371Y-107477180D01*
X204829371Y-108777529D01*
X205148841Y-108777529D01*
X205350525Y-108771347D01*
X205473196Y-108757990D01*
X205656687Y-108690792D01*
X205660774Y-108687648D01*
X205744794Y-108549895D01*
X205764257Y-108348967D01*
X205764333Y-108333007D01*
X205764333Y-107016050D01*
X206330000Y-107016050D01*
X206330000Y-108726727D01*
X206318219Y-108929834D01*
X206275904Y-109127609D01*
X206268450Y-109149755D01*
X206173997Y-109325919D01*
X206067194Y-109436008D01*
X205895254Y-109538838D01*
X205702784Y-109602093D01*
X205500889Y-109636883D01*
X205302348Y-109652468D01*
X205142002Y-109655826D01*
X203885617Y-109655826D01*
X203672058Y-109649477D01*
X203466734Y-109628068D01*
X203331674Y-109602093D01*
X203138503Y-109538838D01*
X202966287Y-109436008D01*
X202834636Y-109290138D01*
X202766008Y-109149755D01*
X202719113Y-108956559D01*
X202703726Y-108757459D01*
X202703482Y-108726727D01*
X202703482Y-107831821D01*
X203269148Y-107831821D01*
X203269148Y-108434612D01*
X203298457Y-108603628D01*
X203398108Y-108710118D01*
X203586664Y-108763852D01*
X203789797Y-108776447D01*
X203886594Y-108777529D01*
X204329162Y-108777529D01*
X204329162Y-107831821D01*
X204311577Y-107677459D01*
X204236350Y-107573900D01*
X204070265Y-107517236D01*
X203867482Y-107500750D01*
X203782058Y-107499651D01*
X203584087Y-107505962D01*
X203505575Y-107514305D01*
X203351214Y-107565108D01*
X203283803Y-107666713D01*
X203269148Y-107831821D01*
X202703482Y-107831821D01*
X202703482Y-107477180D01*
X202728669Y-107270356D01*
X202814559Y-107075688D01*
X202945534Y-106928570D01*
X202961402Y-106915422D01*
X203130516Y-106814357D01*
X203321194Y-106752288D01*
X203519192Y-106719417D01*
X203746268Y-106706554D01*
X203781081Y-106706350D01*
X203980246Y-106713185D01*
G37*
G36*
X205340335Y-103264842D02*
G01*
X205550628Y-103284992D01*
X205702784Y-103313328D01*
X205895254Y-103375882D01*
X206067194Y-103478436D01*
X206199154Y-103626470D01*
X206268450Y-103771528D01*
X206314612Y-103969609D01*
X206329759Y-104172983D01*
X206330000Y-104204326D01*
X206330000Y-105403070D01*
X207705575Y-105403070D01*
X207705575Y-106269644D01*
X202703482Y-106269644D01*
X202703482Y-104795394D01*
X203269148Y-104795394D01*
X203269148Y-105403070D01*
X205764333Y-105403070D01*
X205764333Y-104479832D01*
X205738932Y-104317655D01*
X205649050Y-104210188D01*
X205473196Y-104154501D01*
X205270779Y-104138014D01*
X205186943Y-104136915D01*
X203800621Y-104136915D01*
X203602035Y-104146903D01*
X203500690Y-104165247D01*
X203342421Y-104266852D01*
X203282372Y-104453068D01*
X203280872Y-104469085D01*
X203270533Y-104667798D01*
X203269148Y-104795394D01*
X202703482Y-104795394D01*
X202703482Y-104204326D01*
X202714889Y-104004959D01*
X202755860Y-103805962D01*
X202763077Y-103783251D01*
X202855160Y-103600630D01*
X202961402Y-103487229D01*
X203133683Y-103381561D01*
X203328743Y-103316259D01*
X203531904Y-103279571D01*
X203731011Y-103263136D01*
X203891479Y-103259595D01*
X205142002Y-103259595D01*
X205340335Y-103264842D01*
G37*
G36*
X206330000Y-102034473D02*
G01*
X206300379Y-102237264D01*
X206245980Y-102363712D01*
X206122659Y-102527094D01*
X206012484Y-102622609D01*
X205838224Y-102724807D01*
X205658820Y-102791625D01*
X205458322Y-102833700D01*
X205256470Y-102849729D01*
X205211367Y-102850244D01*
X205010104Y-102839024D01*
X204806914Y-102802101D01*
X204767822Y-102791625D01*
X204573161Y-102719574D01*
X204405366Y-102622609D01*
X204252248Y-102486837D01*
X204163077Y-102363712D01*
X204090477Y-102175531D01*
X204076127Y-102034473D01*
X204076127Y-101420935D01*
X204641793Y-101420935D01*
X204653574Y-101623534D01*
X204669148Y-101708164D01*
X204760006Y-101885973D01*
X204923161Y-101975854D01*
X205120972Y-101999682D01*
X205164473Y-102000279D01*
X205368331Y-101992379D01*
X205574533Y-101957269D01*
X205743244Y-101851939D01*
X205764333Y-101775575D01*
X205764333Y-100717515D01*
X204641793Y-100717515D01*
X204641793Y-101420935D01*
X204076127Y-101420935D01*
X204076127Y-100711653D01*
X203756657Y-100711653D01*
X203552504Y-100724230D01*
X203367822Y-100787857D01*
X203275315Y-100963712D01*
X203269148Y-101049685D01*
X203269148Y-102394975D01*
X202703482Y-102394975D01*
X202703482Y-100779064D01*
X202711866Y-100582254D01*
X202742377Y-100388825D01*
X202754284Y-100343335D01*
X202835858Y-100164801D01*
X202933070Y-100054152D01*
X203104700Y-99946750D01*
X203277941Y-99890997D01*
X203473176Y-99858105D01*
X203685736Y-99842626D01*
X203824068Y-99840195D01*
X206330000Y-99840195D01*
X206330000Y-102034473D01*
G37*
G36*
X206330000Y-98440195D02*
G01*
X206316536Y-98643863D01*
X206268176Y-98843654D01*
X206259658Y-98866154D01*
X206160996Y-99035840D01*
X206035931Y-99155338D01*
X205861542Y-99253035D01*
X205672887Y-99314477D01*
X205643189Y-99321423D01*
X205448466Y-99354167D01*
X205245832Y-99370906D01*
X205062868Y-99375157D01*
X203970614Y-99375157D01*
X203768369Y-99369909D01*
X203568160Y-99352015D01*
X203391270Y-99321423D01*
X203197138Y-99263186D01*
X203016948Y-99169153D01*
X202997550Y-99155338D01*
X202858778Y-99017766D01*
X202774801Y-98866154D01*
X202721311Y-98670760D01*
X202703760Y-98470939D01*
X202703482Y-98440195D01*
X202703482Y-98164689D01*
X203269148Y-98164689D01*
X203294549Y-98327843D01*
X203391270Y-98438241D01*
X203580802Y-98499790D01*
X203775670Y-98517421D01*
X203885617Y-98519330D01*
X204746329Y-98519330D01*
X204944757Y-98516563D01*
X205147357Y-98505938D01*
X205286594Y-98490997D01*
X205482542Y-98445832D01*
X205594340Y-98392323D01*
X205721440Y-98236063D01*
X205733070Y-98198883D01*
X205761280Y-97996417D01*
X205764333Y-97883321D01*
X205764333Y-97343056D01*
X203269148Y-97343056D01*
X203269148Y-98164689D01*
X202703482Y-98164689D01*
X202703482Y-97343056D01*
X201578011Y-97343056D01*
X201578011Y-96470621D01*
X206330000Y-96470621D01*
X206330000Y-98440195D01*
G37*
G36*
X203951074Y-89688485D02*
G01*
X204516741Y-89688485D01*
X204516741Y-92490439D01*
X203951074Y-92490439D01*
X203951074Y-89688485D01*
G37*
G36*
X201765589Y-84920865D02*
G01*
X205392107Y-84301465D01*
X205392107Y-84211584D01*
X201765589Y-83508164D01*
X201765589Y-82709002D01*
X206330000Y-83755338D01*
X206330000Y-84825122D01*
X201765589Y-85787438D01*
X201765589Y-84920865D01*
G37*
G36*
X201765589Y-80358408D02*
G01*
X205764333Y-80358408D01*
X205764333Y-79396092D01*
X206330000Y-79396092D01*
X206330000Y-82266434D01*
X205764333Y-82266434D01*
X205764333Y-81224982D01*
X202331256Y-81224982D01*
X202331256Y-81895184D01*
X201765589Y-81895184D01*
X201765589Y-80358408D01*
G37*
G36*
X205579685Y-76894068D02*
G01*
X206330000Y-76894068D01*
X206330000Y-77923796D01*
X205579685Y-77923796D01*
X205579685Y-76894068D01*
G37*
G36*
X205294863Y-72517624D02*
G01*
X205501630Y-72551284D01*
X205572847Y-72569016D01*
X205759658Y-72633156D01*
X205936157Y-72724704D01*
X205968520Y-72745847D01*
X206119462Y-72872609D01*
X206234256Y-73022330D01*
X206311674Y-73212473D01*
X206330000Y-73374040D01*
X206330000Y-74606001D01*
X206302978Y-74805206D01*
X206234256Y-74963572D01*
X206111087Y-75120299D01*
X205968520Y-75236147D01*
X205796916Y-75331173D01*
X205600839Y-75405591D01*
X205572847Y-75413956D01*
X205369953Y-75458034D01*
X205171841Y-75476862D01*
X205093154Y-75478436D01*
X203020020Y-75478436D01*
X202810237Y-75467795D01*
X202612707Y-75435869D01*
X202525673Y-75413956D01*
X202337045Y-75347144D01*
X202160260Y-75254394D01*
X202128046Y-75233217D01*
X201976615Y-75106699D01*
X201862309Y-74957711D01*
X201784102Y-74767568D01*
X201765589Y-74606001D01*
X201765589Y-74302163D01*
X202331256Y-74302163D01*
X202387920Y-74471179D01*
X202538374Y-74598185D01*
X202725479Y-74671809D01*
X202756238Y-74679274D01*
X202957261Y-74706250D01*
X203016113Y-74707606D01*
X205229930Y-74707606D01*
X202331256Y-73666154D01*
X202331256Y-74302163D01*
X201765589Y-74302163D01*
X201765589Y-73374040D01*
X201781968Y-73266573D01*
X202940886Y-73266573D01*
X205764333Y-74290439D01*
X205764333Y-73682763D01*
X205708646Y-73514724D01*
X205561123Y-73382833D01*
X205379467Y-73306003D01*
X205350097Y-73297836D01*
X205153987Y-73268069D01*
X205096085Y-73266573D01*
X202940886Y-73266573D01*
X201781968Y-73266573D01*
X201796192Y-73173249D01*
X201862309Y-73028192D01*
X201984992Y-72869876D01*
X202128046Y-72751709D01*
X202299593Y-72654794D01*
X202483332Y-72584483D01*
X202525673Y-72571946D01*
X202717547Y-72530198D01*
X202921675Y-72509733D01*
X203020020Y-72507466D01*
X205093154Y-72507466D01*
X205294863Y-72517624D01*
G37*
G36*
X95163569Y-145332794D02*
G01*
X95163569Y-146202787D01*
X95194832Y-146202787D01*
X95777107Y-145332794D01*
X96229933Y-145332794D01*
X95554846Y-146350799D01*
X96224560Y-147615000D01*
X95740471Y-147615000D01*
X95197274Y-146565244D01*
X95163569Y-146568175D01*
X95163569Y-147615000D01*
X94721978Y-147615000D01*
X94721978Y-145332794D01*
X95163569Y-145332794D01*
G37*
G36*
X97641021Y-145814334D02*
G01*
X97738356Y-145857279D01*
X97811915Y-145922767D01*
X97818489Y-145930701D01*
X97869021Y-146015258D01*
X97900055Y-146110597D01*
X97916491Y-146209596D01*
X97922923Y-146323134D01*
X97923025Y-146340540D01*
X97919607Y-146440123D01*
X97906981Y-146542237D01*
X97881160Y-146640392D01*
X97831797Y-146735265D01*
X97825816Y-146743053D01*
X97747903Y-146812303D01*
X97657838Y-146850313D01*
X97561118Y-146864210D01*
X97537609Y-146864685D01*
X96887435Y-146864685D01*
X96887435Y-147024420D01*
X96890526Y-147125262D01*
X96897205Y-147186598D01*
X96930803Y-147278343D01*
X96932376Y-147280387D01*
X97001252Y-147322397D01*
X97101716Y-147332128D01*
X97109696Y-147332166D01*
X97768175Y-147332166D01*
X97768175Y-147615000D01*
X96912836Y-147615000D01*
X96811283Y-147609109D01*
X96712395Y-147587952D01*
X96701322Y-147584225D01*
X96613240Y-147536998D01*
X96558196Y-147483597D01*
X96506781Y-147397627D01*
X96475153Y-147301392D01*
X96457758Y-147200444D01*
X96449965Y-147101174D01*
X96448286Y-147021001D01*
X96448286Y-146393297D01*
X96887435Y-146393297D01*
X96887435Y-146614581D01*
X97360289Y-146614581D01*
X97437470Y-146605788D01*
X97489249Y-146568175D01*
X97517581Y-146485132D01*
X97525825Y-146383741D01*
X97526374Y-146341029D01*
X97523219Y-146242043D01*
X97519047Y-146202787D01*
X97493646Y-146125607D01*
X97442843Y-146091901D01*
X97360289Y-146084574D01*
X97058893Y-146084574D01*
X96974385Y-146099228D01*
X96921140Y-146149054D01*
X96894274Y-146243332D01*
X96887976Y-146344898D01*
X96887435Y-146393297D01*
X96448286Y-146393297D01*
X96448286Y-146392808D01*
X96451461Y-146286029D01*
X96462166Y-146183367D01*
X96475153Y-146115837D01*
X96506781Y-146019251D01*
X96558196Y-145933143D01*
X96631131Y-145867318D01*
X96701322Y-145833004D01*
X96797920Y-145809556D01*
X96897470Y-145801863D01*
X96912836Y-145801741D01*
X97537609Y-145801741D01*
X97641021Y-145814334D01*
G37*
G36*
X98538028Y-145801741D02*
G01*
X98886807Y-147177316D01*
X98900973Y-147177316D01*
X99249752Y-145801741D01*
X99697205Y-145801741D01*
X99174036Y-147615000D01*
X98619605Y-147615000D01*
X98093506Y-145801741D01*
X98538028Y-145801741D01*
G37*
G36*
X100863709Y-145239005D02*
G01*
X100863709Y-145582899D01*
X100348845Y-145582899D01*
X100348845Y-145239005D01*
X100863709Y-145239005D01*
G37*
G36*
X100824630Y-145801741D02*
G01*
X100824630Y-147332166D01*
X101314092Y-147332166D01*
X101314092Y-147615000D01*
X99890645Y-147615000D01*
X99890645Y-147332166D01*
X100388412Y-147332166D01*
X100388412Y-146084574D01*
X99890645Y-146084574D01*
X99890645Y-145801741D01*
X100824630Y-145801741D01*
G37*
G36*
X102582201Y-145801741D02*
G01*
X102685611Y-145806603D01*
X102785934Y-145824066D01*
X102797135Y-145827142D01*
X102886333Y-145867929D01*
X102940750Y-145916535D01*
X102993025Y-146002350D01*
X103020861Y-146088970D01*
X103037308Y-146186588D01*
X103045047Y-146292868D01*
X103046263Y-146362034D01*
X103046263Y-147615000D01*
X102615907Y-147615000D01*
X102615907Y-146390854D01*
X102612472Y-146289494D01*
X102607114Y-146240401D01*
X102577805Y-146147100D01*
X102524071Y-146098740D01*
X102446891Y-146084574D01*
X102013604Y-146084574D01*
X102013604Y-147615000D01*
X101577386Y-147615000D01*
X101577386Y-145801741D01*
X102582201Y-145801741D01*
G37*
G36*
X106429026Y-145332794D02*
G01*
X106429026Y-145615628D01*
X105953729Y-145615628D01*
X105953729Y-147332166D01*
X106429026Y-147332166D01*
X106429026Y-147615000D01*
X105033422Y-147615000D01*
X105033422Y-147332166D01*
X105514581Y-147332166D01*
X105514581Y-145615628D01*
X105033422Y-145615628D01*
X105033422Y-145332794D01*
X106429026Y-145332794D01*
G37*
G36*
X108079619Y-145801741D02*
G01*
X108079619Y-146084574D01*
X107215976Y-146084574D01*
X107121165Y-146114389D01*
X107101671Y-146133422D01*
X107065917Y-146228251D01*
X107061127Y-146302438D01*
X107073375Y-146407990D01*
X107127815Y-146494990D01*
X107215976Y-146520792D01*
X107809487Y-146520792D01*
X107910088Y-146533775D01*
X107978503Y-146561824D01*
X108057420Y-146620131D01*
X108102090Y-146671734D01*
X108151669Y-146757411D01*
X108179759Y-146835376D01*
X108199909Y-146933562D01*
X108206599Y-147032709D01*
X108206625Y-147039563D01*
X108202950Y-147137835D01*
X108189373Y-147241589D01*
X108161606Y-147345797D01*
X108120771Y-147434678D01*
X108102090Y-147464057D01*
X108035564Y-147537023D01*
X107942886Y-147590088D01*
X107842589Y-147612641D01*
X107792878Y-147615000D01*
X106740680Y-147615000D01*
X106740680Y-147332166D01*
X107700066Y-147332166D01*
X107785646Y-147284940D01*
X107789947Y-147278433D01*
X107819670Y-147182242D01*
X107823653Y-147111371D01*
X107815226Y-147013674D01*
X107789947Y-146947240D01*
X107703555Y-146895999D01*
X107700066Y-146895949D01*
X107083597Y-146895949D01*
X106983192Y-146884230D01*
X106906277Y-146854427D01*
X106825664Y-146793003D01*
X106781224Y-146737679D01*
X106735559Y-146650549D01*
X106706486Y-146560847D01*
X106688604Y-146461242D01*
X106681792Y-146362079D01*
X106681573Y-146340052D01*
X106686669Y-146234631D01*
X106704972Y-146127088D01*
X106736586Y-146033345D01*
X106788063Y-145944378D01*
X106857357Y-145875428D01*
X106944890Y-145829042D01*
X107050660Y-145805223D01*
X107117302Y-145801741D01*
X108079619Y-145801741D01*
G37*
G36*
X109533572Y-145805933D02*
G01*
X109630286Y-145821188D01*
X109653032Y-145827142D01*
X109742299Y-145867929D01*
X109797623Y-145916535D01*
X109851324Y-146002350D01*
X109879200Y-146088970D01*
X109895647Y-146186588D01*
X109903386Y-146292868D01*
X109904602Y-146362034D01*
X109904602Y-147615000D01*
X108807463Y-147615000D01*
X108706067Y-147600189D01*
X108642843Y-147572990D01*
X108561152Y-147511329D01*
X108513394Y-147456242D01*
X108462296Y-147369112D01*
X108428886Y-147279410D01*
X108407849Y-147179161D01*
X108399835Y-147078235D01*
X108399577Y-147055683D01*
X108400884Y-147032236D01*
X108824560Y-147032236D01*
X108828510Y-147134165D01*
X108846065Y-147237266D01*
X108898730Y-147321622D01*
X108936912Y-147332166D01*
X109465942Y-147332166D01*
X109465942Y-146770896D01*
X109114232Y-146770896D01*
X109012932Y-146776787D01*
X108970617Y-146784574D01*
X108881713Y-146830003D01*
X108836772Y-146911580D01*
X108824858Y-147010486D01*
X108824560Y-147032236D01*
X108400884Y-147032236D01*
X108405187Y-146955052D01*
X108423649Y-146853457D01*
X108428886Y-146833911D01*
X108464912Y-146736580D01*
X108513394Y-146652683D01*
X108581281Y-146576124D01*
X108642843Y-146531538D01*
X108736933Y-146495238D01*
X108807463Y-146488063D01*
X109468872Y-146488063D01*
X109468872Y-146328328D01*
X109462584Y-146226252D01*
X109430771Y-146133911D01*
X109342843Y-146087657D01*
X109299856Y-146084574D01*
X108627212Y-146084574D01*
X108627212Y-145801741D01*
X109435167Y-145801741D01*
X109533572Y-145805933D01*
G37*
G36*
X110567965Y-145801741D02*
G01*
X111127770Y-145801741D01*
X111230579Y-145808917D01*
X111331360Y-145834692D01*
X111423426Y-145886096D01*
X111486318Y-145951706D01*
X111533763Y-146038168D01*
X111564157Y-146132655D01*
X111584172Y-146244721D01*
X111593068Y-146354767D01*
X111594762Y-146435307D01*
X111594762Y-146981434D01*
X111592115Y-147081211D01*
X111581948Y-147189105D01*
X111560450Y-147298659D01*
X111523172Y-147402340D01*
X111486318Y-147465034D01*
X111414311Y-147537527D01*
X111319737Y-147586295D01*
X111216728Y-147609727D01*
X111127770Y-147615000D01*
X110128817Y-147615000D01*
X110128817Y-147332166D01*
X110567965Y-147332166D01*
X110877177Y-147332166D01*
X110977845Y-147328590D01*
X111019326Y-147323862D01*
X111105300Y-147284295D01*
X111146588Y-147194841D01*
X111147309Y-147190994D01*
X111157217Y-147088312D01*
X111158545Y-147018070D01*
X111158545Y-146392808D01*
X111155617Y-146294068D01*
X111150240Y-146240401D01*
X111121908Y-146145635D01*
X111068663Y-146097274D01*
X110987086Y-146084574D01*
X110567965Y-146084574D01*
X110567965Y-147332166D01*
X110128817Y-147332166D01*
X110128817Y-145239005D01*
X110567965Y-145239005D01*
X110567965Y-145801741D01*
G37*
G36*
X113028321Y-145814334D02*
G01*
X113125655Y-145857279D01*
X113199214Y-145922767D01*
X113205788Y-145930701D01*
X113256321Y-146015258D01*
X113287355Y-146110597D01*
X113303790Y-146209596D01*
X113310222Y-146323134D01*
X113310324Y-146340540D01*
X113306907Y-146440123D01*
X113294281Y-146542237D01*
X113268460Y-146640392D01*
X113219096Y-146735265D01*
X113213115Y-146743053D01*
X113135202Y-146812303D01*
X113045137Y-146850313D01*
X112948417Y-146864210D01*
X112924909Y-146864685D01*
X112274734Y-146864685D01*
X112274734Y-147024420D01*
X112277826Y-147125262D01*
X112284504Y-147186598D01*
X112318103Y-147278343D01*
X112319675Y-147280387D01*
X112388551Y-147322397D01*
X112489015Y-147332128D01*
X112496995Y-147332166D01*
X113155474Y-147332166D01*
X113155474Y-147615000D01*
X112300136Y-147615000D01*
X112198582Y-147609109D01*
X112099694Y-147587952D01*
X112088621Y-147584225D01*
X112000539Y-147536998D01*
X111945495Y-147483597D01*
X111894080Y-147397627D01*
X111862452Y-147301392D01*
X111845057Y-147200444D01*
X111837265Y-147101174D01*
X111835586Y-147021001D01*
X111835586Y-146393297D01*
X112274734Y-146393297D01*
X112274734Y-146614581D01*
X112747588Y-146614581D01*
X112824769Y-146605788D01*
X112876549Y-146568175D01*
X112904881Y-146485132D01*
X112913124Y-146383741D01*
X112913674Y-146341029D01*
X112910518Y-146242043D01*
X112906346Y-146202787D01*
X112880945Y-146125607D01*
X112830143Y-146091901D01*
X112747588Y-146084574D01*
X112446193Y-146084574D01*
X112361685Y-146099228D01*
X112308440Y-146149054D01*
X112281573Y-146243332D01*
X112275275Y-146344898D01*
X112274734Y-146393297D01*
X111835586Y-146393297D01*
X111835586Y-146392808D01*
X111838760Y-146286029D01*
X111849465Y-146183367D01*
X111862452Y-146115837D01*
X111894080Y-146019251D01*
X111945495Y-145933143D01*
X112018430Y-145867318D01*
X112088621Y-145833004D01*
X112185219Y-145809556D01*
X112284769Y-145801863D01*
X112300136Y-145801741D01*
X112924909Y-145801741D01*
X113028321Y-145814334D01*
G37*
G36*
X114493925Y-145239005D02*
G01*
X114493925Y-147332166D01*
X114994623Y-147332166D01*
X114994623Y-147615000D01*
X113568244Y-147615000D01*
X113568244Y-147332166D01*
X114057707Y-147332166D01*
X114057707Y-145521838D01*
X113568244Y-145521838D01*
X113568244Y-145239005D01*
X114493925Y-145239005D01*
G37*
G36*
X116203625Y-145239005D02*
G01*
X116203625Y-147332166D01*
X116704323Y-147332166D01*
X116704323Y-147615000D01*
X115277944Y-147615000D01*
X115277944Y-147332166D01*
X115767407Y-147332166D01*
X115767407Y-145521838D01*
X115277944Y-145521838D01*
X115277944Y-145239005D01*
X116203625Y-145239005D01*
G37*
G36*
X118157421Y-145814334D02*
G01*
X118254755Y-145857279D01*
X118328314Y-145922767D01*
X118334888Y-145930701D01*
X118385420Y-146015258D01*
X118416454Y-146110597D01*
X118432890Y-146209596D01*
X118439322Y-146323134D01*
X118439424Y-146340540D01*
X118436006Y-146440123D01*
X118423381Y-146542237D01*
X118397560Y-146640392D01*
X118348196Y-146735265D01*
X118342215Y-146743053D01*
X118264302Y-146812303D01*
X118174237Y-146850313D01*
X118077517Y-146864210D01*
X118054009Y-146864685D01*
X117403834Y-146864685D01*
X117403834Y-147024420D01*
X117406925Y-147125262D01*
X117413604Y-147186598D01*
X117447202Y-147278343D01*
X117448775Y-147280387D01*
X117517651Y-147322397D01*
X117618115Y-147332128D01*
X117626095Y-147332166D01*
X118284574Y-147332166D01*
X118284574Y-147615000D01*
X117429235Y-147615000D01*
X117327682Y-147609109D01*
X117228794Y-147587952D01*
X117217721Y-147584225D01*
X117129639Y-147536998D01*
X117074595Y-147483597D01*
X117023180Y-147397627D01*
X116991552Y-147301392D01*
X116974157Y-147200444D01*
X116966365Y-147101174D01*
X116964685Y-147021001D01*
X116964685Y-146393297D01*
X117403834Y-146393297D01*
X117403834Y-146614581D01*
X117876688Y-146614581D01*
X117953869Y-146605788D01*
X118005648Y-146568175D01*
X118033981Y-146485132D01*
X118042224Y-146383741D01*
X118042773Y-146341029D01*
X118039618Y-146242043D01*
X118035446Y-146202787D01*
X118010045Y-146125607D01*
X117959242Y-146091901D01*
X117876688Y-146084574D01*
X117575293Y-146084574D01*
X117490785Y-146099228D01*
X117437540Y-146149054D01*
X117410673Y-146243332D01*
X117404375Y-146344898D01*
X117403834Y-146393297D01*
X116964685Y-146393297D01*
X116964685Y-146392808D01*
X116967860Y-146286029D01*
X116978565Y-146183367D01*
X116991552Y-146115837D01*
X117023180Y-146019251D01*
X117074595Y-145933143D01*
X117147530Y-145867318D01*
X117217721Y-145833004D01*
X117314319Y-145809556D01*
X117413869Y-145801863D01*
X117429235Y-145801741D01*
X118054009Y-145801741D01*
X118157421Y-145814334D01*
G37*
G36*
X121819256Y-146425537D02*
G01*
X121819256Y-146708370D01*
X120418279Y-146708370D01*
X120418279Y-146425537D01*
X121819256Y-146425537D01*
G37*
G36*
X124836144Y-145332794D02*
G01*
X124933459Y-145346719D01*
X125011999Y-145382131D01*
X125091157Y-145445305D01*
X125150240Y-145518907D01*
X125198376Y-145606649D01*
X125232650Y-145699774D01*
X125238656Y-145721140D01*
X125258582Y-145817629D01*
X125268349Y-145919761D01*
X125269431Y-145968803D01*
X125264352Y-146072820D01*
X125249115Y-146170549D01*
X125238656Y-146213534D01*
X125206773Y-146306232D01*
X125161614Y-146393100D01*
X125151217Y-146408928D01*
X125084775Y-146486821D01*
X125014930Y-146538377D01*
X124918931Y-146575901D01*
X124836144Y-146584783D01*
X124405788Y-146584783D01*
X124313825Y-146617937D01*
X124260180Y-146704469D01*
X124237530Y-146808905D01*
X124231399Y-146924281D01*
X124231399Y-147332166D01*
X125278224Y-147332166D01*
X125278224Y-147615000D01*
X123803485Y-147615000D01*
X123803485Y-146927212D01*
X123808161Y-146822320D01*
X123822189Y-146723555D01*
X123831817Y-146680038D01*
X123861657Y-146585577D01*
X123904834Y-146497650D01*
X123914860Y-146481713D01*
X123979331Y-146403025D01*
X124046751Y-146350310D01*
X124141548Y-146311206D01*
X124225537Y-146301950D01*
X124650519Y-146301950D01*
X124747302Y-146267680D01*
X124798042Y-146204741D01*
X124835776Y-146109813D01*
X124851893Y-146004754D01*
X124853241Y-145960010D01*
X124845479Y-145856833D01*
X124819550Y-145760251D01*
X124798042Y-145714790D01*
X124733806Y-145640418D01*
X124650519Y-145615628D01*
X124014511Y-145615628D01*
X124014511Y-145332794D01*
X124836144Y-145332794D01*
G37*
G36*
X126657474Y-145348096D02*
G01*
X126730003Y-145381154D01*
X126809161Y-145442496D01*
X126868244Y-145514023D01*
X126916702Y-145599796D01*
X126951858Y-145691666D01*
X126958126Y-145712836D01*
X126979000Y-145808773D01*
X126989232Y-145910837D01*
X126990366Y-145960010D01*
X126990366Y-146996577D01*
X126985287Y-147097431D01*
X126968457Y-147200815D01*
X126959591Y-147236423D01*
X126927521Y-147329829D01*
X126881747Y-147418078D01*
X126871175Y-147434260D01*
X126807794Y-147509731D01*
X126732934Y-147567128D01*
X126637862Y-147605837D01*
X126557079Y-147615000D01*
X125941099Y-147615000D01*
X125841496Y-147601489D01*
X125762313Y-147567128D01*
X125683950Y-147505543D01*
X125626025Y-147434260D01*
X125578512Y-147348458D01*
X125572329Y-147332166D01*
X126098879Y-147332166D01*
X126402718Y-147332166D01*
X126486737Y-147304323D01*
X126552683Y-147230561D01*
X126591098Y-147139733D01*
X126595181Y-147125048D01*
X126610064Y-147026993D01*
X126610812Y-146998042D01*
X126610812Y-145920443D01*
X126098879Y-147332166D01*
X125572329Y-147332166D01*
X125541304Y-147250419D01*
X125537121Y-147236423D01*
X125515082Y-147134976D01*
X125505668Y-147035920D01*
X125504881Y-146996577D01*
X125504881Y-145960010D01*
X125504980Y-145958056D01*
X125890296Y-145958056D01*
X125890296Y-147064965D01*
X126411022Y-145615628D01*
X126093018Y-145615628D01*
X126008510Y-145643960D01*
X125945006Y-145719187D01*
X125908195Y-145812739D01*
X125904462Y-145828119D01*
X125890974Y-145928630D01*
X125890296Y-145958056D01*
X125504980Y-145958056D01*
X125510202Y-145855118D01*
X125526164Y-145756353D01*
X125537121Y-145712836D01*
X125570527Y-145618522D01*
X125616902Y-145530130D01*
X125627491Y-145514023D01*
X125690750Y-145438307D01*
X125765244Y-145381154D01*
X125860315Y-145342051D01*
X125941099Y-145332794D01*
X126557079Y-145332794D01*
X126657474Y-145348096D01*
G37*
G36*
X128255544Y-145332794D02*
G01*
X128352859Y-145346719D01*
X128431399Y-145382131D01*
X128510557Y-145445305D01*
X128569640Y-145518907D01*
X128617776Y-145606649D01*
X128652050Y-145699774D01*
X128658056Y-145721140D01*
X128677981Y-145817629D01*
X128687749Y-145919761D01*
X128688831Y-145968803D01*
X128683752Y-146072820D01*
X128668515Y-146170549D01*
X128658056Y-146213534D01*
X128626173Y-146306232D01*
X128581014Y-146393100D01*
X128570617Y-146408928D01*
X128504175Y-146486821D01*
X128434330Y-146538377D01*
X128338331Y-146575901D01*
X128255544Y-146584783D01*
X127825188Y-146584783D01*
X127733225Y-146617937D01*
X127679580Y-146704469D01*
X127656929Y-146808905D01*
X127650799Y-146924281D01*
X127650799Y-147332166D01*
X128697623Y-147332166D01*
X128697623Y-147615000D01*
X127222885Y-147615000D01*
X127222885Y-146927212D01*
X127227561Y-146822320D01*
X127241589Y-146723555D01*
X127251217Y-146680038D01*
X127281057Y-146585577D01*
X127324233Y-146497650D01*
X127334260Y-146481713D01*
X127398731Y-146403025D01*
X127466151Y-146350310D01*
X127560948Y-146311206D01*
X127644937Y-146301950D01*
X128069919Y-146301950D01*
X128166701Y-146267680D01*
X128217442Y-146204741D01*
X128255176Y-146109813D01*
X128271293Y-146004754D01*
X128272641Y-145960010D01*
X128264878Y-145856833D01*
X128238950Y-145760251D01*
X128217442Y-145714790D01*
X128153206Y-145640418D01*
X128069919Y-145615628D01*
X127433911Y-145615628D01*
X127433911Y-145332794D01*
X128255544Y-145332794D01*
G37*
G36*
X130238307Y-145332794D02*
G01*
X130238307Y-145615628D01*
X129343401Y-145615628D01*
X129343401Y-146206695D01*
X129985272Y-146206695D01*
X130084079Y-146221860D01*
X130162103Y-146260429D01*
X130239291Y-146327341D01*
X130295949Y-146403555D01*
X130341658Y-146494366D01*
X130374249Y-146590937D01*
X130379968Y-146613115D01*
X130399261Y-146711651D01*
X130408718Y-146813572D01*
X130409766Y-146861755D01*
X130405026Y-146966649D01*
X130390806Y-147070307D01*
X130376060Y-147138726D01*
X130347209Y-147236614D01*
X130307892Y-147332892D01*
X130283248Y-147380526D01*
X130226948Y-147464756D01*
X130156459Y-147537986D01*
X130141099Y-147550519D01*
X130055003Y-147598879D01*
X129962801Y-147615000D01*
X128924281Y-147615000D01*
X128924281Y-147332166D01*
X129776688Y-147332166D01*
X129866570Y-147291622D01*
X129922482Y-147208969D01*
X129933004Y-147185132D01*
X129963217Y-147091005D01*
X129975013Y-147035655D01*
X129988065Y-146934849D01*
X129990645Y-146864685D01*
X129986256Y-146762008D01*
X129969404Y-146658693D01*
X129945704Y-146589180D01*
X129883617Y-146511424D01*
X129805020Y-146489528D01*
X128924281Y-146489528D01*
X128924281Y-145332794D01*
X130238307Y-145332794D01*
G37*
D11*
X102068333Y-77289819D02*
X101735000Y-76813628D01*
X101496905Y-77289819D02*
X101496905Y-76289819D01*
X101496905Y-76289819D02*
X101877857Y-76289819D01*
X101877857Y-76289819D02*
X101973095Y-76337438D01*
X101973095Y-76337438D02*
X102020714Y-76385057D01*
X102020714Y-76385057D02*
X102068333Y-76480295D01*
X102068333Y-76480295D02*
X102068333Y-76623152D01*
X102068333Y-76623152D02*
X102020714Y-76718390D01*
X102020714Y-76718390D02*
X101973095Y-76766009D01*
X101973095Y-76766009D02*
X101877857Y-76813628D01*
X101877857Y-76813628D02*
X101496905Y-76813628D01*
X102401667Y-76289819D02*
X103068333Y-76289819D01*
X103068333Y-76289819D02*
X102639762Y-77289819D01*
X95821667Y-78312200D02*
X95964524Y-78359819D01*
X95964524Y-78359819D02*
X96202619Y-78359819D01*
X96202619Y-78359819D02*
X96297857Y-78312200D01*
X96297857Y-78312200D02*
X96345476Y-78264580D01*
X96345476Y-78264580D02*
X96393095Y-78169342D01*
X96393095Y-78169342D02*
X96393095Y-78074104D01*
X96393095Y-78074104D02*
X96345476Y-77978866D01*
X96345476Y-77978866D02*
X96297857Y-77931247D01*
X96297857Y-77931247D02*
X96202619Y-77883628D01*
X96202619Y-77883628D02*
X96012143Y-77836009D01*
X96012143Y-77836009D02*
X95916905Y-77788390D01*
X95916905Y-77788390D02*
X95869286Y-77740771D01*
X95869286Y-77740771D02*
X95821667Y-77645533D01*
X95821667Y-77645533D02*
X95821667Y-77550295D01*
X95821667Y-77550295D02*
X95869286Y-77455057D01*
X95869286Y-77455057D02*
X95916905Y-77407438D01*
X95916905Y-77407438D02*
X96012143Y-77359819D01*
X96012143Y-77359819D02*
X96250238Y-77359819D01*
X96250238Y-77359819D02*
X96393095Y-77407438D01*
X96726429Y-77359819D02*
X96964524Y-78359819D01*
X96964524Y-78359819D02*
X97155000Y-77645533D01*
X97155000Y-77645533D02*
X97345476Y-78359819D01*
X97345476Y-78359819D02*
X97583572Y-77359819D01*
X98393095Y-77359819D02*
X98202619Y-77359819D01*
X98202619Y-77359819D02*
X98107381Y-77407438D01*
X98107381Y-77407438D02*
X98059762Y-77455057D01*
X98059762Y-77455057D02*
X97964524Y-77597914D01*
X97964524Y-77597914D02*
X97916905Y-77788390D01*
X97916905Y-77788390D02*
X97916905Y-78169342D01*
X97916905Y-78169342D02*
X97964524Y-78264580D01*
X97964524Y-78264580D02*
X98012143Y-78312200D01*
X98012143Y-78312200D02*
X98107381Y-78359819D01*
X98107381Y-78359819D02*
X98297857Y-78359819D01*
X98297857Y-78359819D02*
X98393095Y-78312200D01*
X98393095Y-78312200D02*
X98440714Y-78264580D01*
X98440714Y-78264580D02*
X98488333Y-78169342D01*
X98488333Y-78169342D02*
X98488333Y-77931247D01*
X98488333Y-77931247D02*
X98440714Y-77836009D01*
X98440714Y-77836009D02*
X98393095Y-77788390D01*
X98393095Y-77788390D02*
X98297857Y-77740771D01*
X98297857Y-77740771D02*
X98107381Y-77740771D01*
X98107381Y-77740771D02*
X98012143Y-77788390D01*
X98012143Y-77788390D02*
X97964524Y-77836009D01*
X97964524Y-77836009D02*
X97916905Y-77931247D01*
X95821667Y-59462200D02*
X95964524Y-59509819D01*
X95964524Y-59509819D02*
X96202619Y-59509819D01*
X96202619Y-59509819D02*
X96297857Y-59462200D01*
X96297857Y-59462200D02*
X96345476Y-59414580D01*
X96345476Y-59414580D02*
X96393095Y-59319342D01*
X96393095Y-59319342D02*
X96393095Y-59224104D01*
X96393095Y-59224104D02*
X96345476Y-59128866D01*
X96345476Y-59128866D02*
X96297857Y-59081247D01*
X96297857Y-59081247D02*
X96202619Y-59033628D01*
X96202619Y-59033628D02*
X96012143Y-58986009D01*
X96012143Y-58986009D02*
X95916905Y-58938390D01*
X95916905Y-58938390D02*
X95869286Y-58890771D01*
X95869286Y-58890771D02*
X95821667Y-58795533D01*
X95821667Y-58795533D02*
X95821667Y-58700295D01*
X95821667Y-58700295D02*
X95869286Y-58605057D01*
X95869286Y-58605057D02*
X95916905Y-58557438D01*
X95916905Y-58557438D02*
X96012143Y-58509819D01*
X96012143Y-58509819D02*
X96250238Y-58509819D01*
X96250238Y-58509819D02*
X96393095Y-58557438D01*
X96726429Y-58509819D02*
X96964524Y-59509819D01*
X96964524Y-59509819D02*
X97155000Y-58795533D01*
X97155000Y-58795533D02*
X97345476Y-59509819D01*
X97345476Y-59509819D02*
X97583572Y-58509819D01*
X98440714Y-58509819D02*
X97964524Y-58509819D01*
X97964524Y-58509819D02*
X97916905Y-58986009D01*
X97916905Y-58986009D02*
X97964524Y-58938390D01*
X97964524Y-58938390D02*
X98059762Y-58890771D01*
X98059762Y-58890771D02*
X98297857Y-58890771D01*
X98297857Y-58890771D02*
X98393095Y-58938390D01*
X98393095Y-58938390D02*
X98440714Y-58986009D01*
X98440714Y-58986009D02*
X98488333Y-59081247D01*
X98488333Y-59081247D02*
X98488333Y-59319342D01*
X98488333Y-59319342D02*
X98440714Y-59414580D01*
X98440714Y-59414580D02*
X98393095Y-59462200D01*
X98393095Y-59462200D02*
X98297857Y-59509819D01*
X98297857Y-59509819D02*
X98059762Y-59509819D01*
X98059762Y-59509819D02*
X97964524Y-59462200D01*
X97964524Y-59462200D02*
X97916905Y-59414580D01*
X183369819Y-109410238D02*
X182893628Y-109743571D01*
X183369819Y-109981666D02*
X182369819Y-109981666D01*
X182369819Y-109981666D02*
X182369819Y-109600714D01*
X182369819Y-109600714D02*
X182417438Y-109505476D01*
X182417438Y-109505476D02*
X182465057Y-109457857D01*
X182465057Y-109457857D02*
X182560295Y-109410238D01*
X182560295Y-109410238D02*
X182703152Y-109410238D01*
X182703152Y-109410238D02*
X182798390Y-109457857D01*
X182798390Y-109457857D02*
X182846009Y-109505476D01*
X182846009Y-109505476D02*
X182893628Y-109600714D01*
X182893628Y-109600714D02*
X182893628Y-109981666D01*
X182369819Y-109124523D02*
X183369819Y-108791190D01*
X183369819Y-108791190D02*
X182369819Y-108457857D01*
X182465057Y-108172142D02*
X182417438Y-108124523D01*
X182417438Y-108124523D02*
X182369819Y-108029285D01*
X182369819Y-108029285D02*
X182369819Y-107791190D01*
X182369819Y-107791190D02*
X182417438Y-107695952D01*
X182417438Y-107695952D02*
X182465057Y-107648333D01*
X182465057Y-107648333D02*
X182560295Y-107600714D01*
X182560295Y-107600714D02*
X182655533Y-107600714D01*
X182655533Y-107600714D02*
X182798390Y-107648333D01*
X182798390Y-107648333D02*
X183369819Y-108219761D01*
X183369819Y-108219761D02*
X183369819Y-107600714D01*
X112331667Y-122322200D02*
X112474524Y-122369819D01*
X112474524Y-122369819D02*
X112712619Y-122369819D01*
X112712619Y-122369819D02*
X112807857Y-122322200D01*
X112807857Y-122322200D02*
X112855476Y-122274580D01*
X112855476Y-122274580D02*
X112903095Y-122179342D01*
X112903095Y-122179342D02*
X112903095Y-122084104D01*
X112903095Y-122084104D02*
X112855476Y-121988866D01*
X112855476Y-121988866D02*
X112807857Y-121941247D01*
X112807857Y-121941247D02*
X112712619Y-121893628D01*
X112712619Y-121893628D02*
X112522143Y-121846009D01*
X112522143Y-121846009D02*
X112426905Y-121798390D01*
X112426905Y-121798390D02*
X112379286Y-121750771D01*
X112379286Y-121750771D02*
X112331667Y-121655533D01*
X112331667Y-121655533D02*
X112331667Y-121560295D01*
X112331667Y-121560295D02*
X112379286Y-121465057D01*
X112379286Y-121465057D02*
X112426905Y-121417438D01*
X112426905Y-121417438D02*
X112522143Y-121369819D01*
X112522143Y-121369819D02*
X112760238Y-121369819D01*
X112760238Y-121369819D02*
X112903095Y-121417438D01*
X113236429Y-121369819D02*
X113474524Y-122369819D01*
X113474524Y-122369819D02*
X113665000Y-121655533D01*
X113665000Y-121655533D02*
X113855476Y-122369819D01*
X113855476Y-122369819D02*
X114093572Y-121369819D01*
X114903095Y-121703152D02*
X114903095Y-122369819D01*
X114665000Y-121322200D02*
X114426905Y-122036485D01*
X114426905Y-122036485D02*
X115045952Y-122036485D01*
X95821667Y-122327200D02*
X95964524Y-122374819D01*
X95964524Y-122374819D02*
X96202619Y-122374819D01*
X96202619Y-122374819D02*
X96297857Y-122327200D01*
X96297857Y-122327200D02*
X96345476Y-122279580D01*
X96345476Y-122279580D02*
X96393095Y-122184342D01*
X96393095Y-122184342D02*
X96393095Y-122089104D01*
X96393095Y-122089104D02*
X96345476Y-121993866D01*
X96345476Y-121993866D02*
X96297857Y-121946247D01*
X96297857Y-121946247D02*
X96202619Y-121898628D01*
X96202619Y-121898628D02*
X96012143Y-121851009D01*
X96012143Y-121851009D02*
X95916905Y-121803390D01*
X95916905Y-121803390D02*
X95869286Y-121755771D01*
X95869286Y-121755771D02*
X95821667Y-121660533D01*
X95821667Y-121660533D02*
X95821667Y-121565295D01*
X95821667Y-121565295D02*
X95869286Y-121470057D01*
X95869286Y-121470057D02*
X95916905Y-121422438D01*
X95916905Y-121422438D02*
X96012143Y-121374819D01*
X96012143Y-121374819D02*
X96250238Y-121374819D01*
X96250238Y-121374819D02*
X96393095Y-121422438D01*
X96726429Y-121374819D02*
X96964524Y-122374819D01*
X96964524Y-122374819D02*
X97155000Y-121660533D01*
X97155000Y-121660533D02*
X97345476Y-122374819D01*
X97345476Y-122374819D02*
X97583572Y-121374819D01*
X97916905Y-121470057D02*
X97964524Y-121422438D01*
X97964524Y-121422438D02*
X98059762Y-121374819D01*
X98059762Y-121374819D02*
X98297857Y-121374819D01*
X98297857Y-121374819D02*
X98393095Y-121422438D01*
X98393095Y-121422438D02*
X98440714Y-121470057D01*
X98440714Y-121470057D02*
X98488333Y-121565295D01*
X98488333Y-121565295D02*
X98488333Y-121660533D01*
X98488333Y-121660533D02*
X98440714Y-121803390D01*
X98440714Y-121803390D02*
X97869286Y-122374819D01*
X97869286Y-122374819D02*
X98488333Y-122374819D01*
X84288333Y-77289819D02*
X83955000Y-76813628D01*
X83716905Y-77289819D02*
X83716905Y-76289819D01*
X83716905Y-76289819D02*
X84097857Y-76289819D01*
X84097857Y-76289819D02*
X84193095Y-76337438D01*
X84193095Y-76337438D02*
X84240714Y-76385057D01*
X84240714Y-76385057D02*
X84288333Y-76480295D01*
X84288333Y-76480295D02*
X84288333Y-76623152D01*
X84288333Y-76623152D02*
X84240714Y-76718390D01*
X84240714Y-76718390D02*
X84193095Y-76766009D01*
X84193095Y-76766009D02*
X84097857Y-76813628D01*
X84097857Y-76813628D02*
X83716905Y-76813628D01*
X85193095Y-76289819D02*
X84716905Y-76289819D01*
X84716905Y-76289819D02*
X84669286Y-76766009D01*
X84669286Y-76766009D02*
X84716905Y-76718390D01*
X84716905Y-76718390D02*
X84812143Y-76670771D01*
X84812143Y-76670771D02*
X85050238Y-76670771D01*
X85050238Y-76670771D02*
X85145476Y-76718390D01*
X85145476Y-76718390D02*
X85193095Y-76766009D01*
X85193095Y-76766009D02*
X85240714Y-76861247D01*
X85240714Y-76861247D02*
X85240714Y-77099342D01*
X85240714Y-77099342D02*
X85193095Y-77194580D01*
X85193095Y-77194580D02*
X85145476Y-77242200D01*
X85145476Y-77242200D02*
X85050238Y-77289819D01*
X85050238Y-77289819D02*
X84812143Y-77289819D01*
X84812143Y-77289819D02*
X84716905Y-77242200D01*
X84716905Y-77242200D02*
X84669286Y-77194580D01*
X198609819Y-109410238D02*
X198133628Y-109743571D01*
X198609819Y-109981666D02*
X197609819Y-109981666D01*
X197609819Y-109981666D02*
X197609819Y-109600714D01*
X197609819Y-109600714D02*
X197657438Y-109505476D01*
X197657438Y-109505476D02*
X197705057Y-109457857D01*
X197705057Y-109457857D02*
X197800295Y-109410238D01*
X197800295Y-109410238D02*
X197943152Y-109410238D01*
X197943152Y-109410238D02*
X198038390Y-109457857D01*
X198038390Y-109457857D02*
X198086009Y-109505476D01*
X198086009Y-109505476D02*
X198133628Y-109600714D01*
X198133628Y-109600714D02*
X198133628Y-109981666D01*
X197609819Y-109124523D02*
X198609819Y-108791190D01*
X198609819Y-108791190D02*
X197609819Y-108457857D01*
X198609819Y-107600714D02*
X198609819Y-108172142D01*
X198609819Y-107886428D02*
X197609819Y-107886428D01*
X197609819Y-107886428D02*
X197752676Y-107981666D01*
X197752676Y-107981666D02*
X197847914Y-108076904D01*
X197847914Y-108076904D02*
X197895533Y-108172142D01*
X102068333Y-121104819D02*
X101735000Y-120628628D01*
X101496905Y-121104819D02*
X101496905Y-120104819D01*
X101496905Y-120104819D02*
X101877857Y-120104819D01*
X101877857Y-120104819D02*
X101973095Y-120152438D01*
X101973095Y-120152438D02*
X102020714Y-120200057D01*
X102020714Y-120200057D02*
X102068333Y-120295295D01*
X102068333Y-120295295D02*
X102068333Y-120438152D01*
X102068333Y-120438152D02*
X102020714Y-120533390D01*
X102020714Y-120533390D02*
X101973095Y-120581009D01*
X101973095Y-120581009D02*
X101877857Y-120628628D01*
X101877857Y-120628628D02*
X101496905Y-120628628D01*
X102401667Y-120104819D02*
X103020714Y-120104819D01*
X103020714Y-120104819D02*
X102687381Y-120485771D01*
X102687381Y-120485771D02*
X102830238Y-120485771D01*
X102830238Y-120485771D02*
X102925476Y-120533390D01*
X102925476Y-120533390D02*
X102973095Y-120581009D01*
X102973095Y-120581009D02*
X103020714Y-120676247D01*
X103020714Y-120676247D02*
X103020714Y-120914342D01*
X103020714Y-120914342D02*
X102973095Y-121009580D01*
X102973095Y-121009580D02*
X102925476Y-121057200D01*
X102925476Y-121057200D02*
X102830238Y-121104819D01*
X102830238Y-121104819D02*
X102544524Y-121104819D01*
X102544524Y-121104819D02*
X102449286Y-121057200D01*
X102449286Y-121057200D02*
X102401667Y-121009580D01*
X112331667Y-103427200D02*
X112474524Y-103474819D01*
X112474524Y-103474819D02*
X112712619Y-103474819D01*
X112712619Y-103474819D02*
X112807857Y-103427200D01*
X112807857Y-103427200D02*
X112855476Y-103379580D01*
X112855476Y-103379580D02*
X112903095Y-103284342D01*
X112903095Y-103284342D02*
X112903095Y-103189104D01*
X112903095Y-103189104D02*
X112855476Y-103093866D01*
X112855476Y-103093866D02*
X112807857Y-103046247D01*
X112807857Y-103046247D02*
X112712619Y-102998628D01*
X112712619Y-102998628D02*
X112522143Y-102951009D01*
X112522143Y-102951009D02*
X112426905Y-102903390D01*
X112426905Y-102903390D02*
X112379286Y-102855771D01*
X112379286Y-102855771D02*
X112331667Y-102760533D01*
X112331667Y-102760533D02*
X112331667Y-102665295D01*
X112331667Y-102665295D02*
X112379286Y-102570057D01*
X112379286Y-102570057D02*
X112426905Y-102522438D01*
X112426905Y-102522438D02*
X112522143Y-102474819D01*
X112522143Y-102474819D02*
X112760238Y-102474819D01*
X112760238Y-102474819D02*
X112903095Y-102522438D01*
X113236429Y-102474819D02*
X113474524Y-103474819D01*
X113474524Y-103474819D02*
X113665000Y-102760533D01*
X113665000Y-102760533D02*
X113855476Y-103474819D01*
X113855476Y-103474819D02*
X114093572Y-102474819D01*
X114379286Y-102474819D02*
X114998333Y-102474819D01*
X114998333Y-102474819D02*
X114665000Y-102855771D01*
X114665000Y-102855771D02*
X114807857Y-102855771D01*
X114807857Y-102855771D02*
X114903095Y-102903390D01*
X114903095Y-102903390D02*
X114950714Y-102951009D01*
X114950714Y-102951009D02*
X114998333Y-103046247D01*
X114998333Y-103046247D02*
X114998333Y-103284342D01*
X114998333Y-103284342D02*
X114950714Y-103379580D01*
X114950714Y-103379580D02*
X114903095Y-103427200D01*
X114903095Y-103427200D02*
X114807857Y-103474819D01*
X114807857Y-103474819D02*
X114522143Y-103474819D01*
X114522143Y-103474819D02*
X114426905Y-103427200D01*
X114426905Y-103427200D02*
X114379286Y-103379580D01*
X112966667Y-59417200D02*
X113109524Y-59464819D01*
X113109524Y-59464819D02*
X113347619Y-59464819D01*
X113347619Y-59464819D02*
X113442857Y-59417200D01*
X113442857Y-59417200D02*
X113490476Y-59369580D01*
X113490476Y-59369580D02*
X113538095Y-59274342D01*
X113538095Y-59274342D02*
X113538095Y-59179104D01*
X113538095Y-59179104D02*
X113490476Y-59083866D01*
X113490476Y-59083866D02*
X113442857Y-59036247D01*
X113442857Y-59036247D02*
X113347619Y-58988628D01*
X113347619Y-58988628D02*
X113157143Y-58941009D01*
X113157143Y-58941009D02*
X113061905Y-58893390D01*
X113061905Y-58893390D02*
X113014286Y-58845771D01*
X113014286Y-58845771D02*
X112966667Y-58750533D01*
X112966667Y-58750533D02*
X112966667Y-58655295D01*
X112966667Y-58655295D02*
X113014286Y-58560057D01*
X113014286Y-58560057D02*
X113061905Y-58512438D01*
X113061905Y-58512438D02*
X113157143Y-58464819D01*
X113157143Y-58464819D02*
X113395238Y-58464819D01*
X113395238Y-58464819D02*
X113538095Y-58512438D01*
X113871429Y-58464819D02*
X114109524Y-59464819D01*
X114109524Y-59464819D02*
X114300000Y-58750533D01*
X114300000Y-58750533D02*
X114490476Y-59464819D01*
X114490476Y-59464819D02*
X114728572Y-58464819D01*
X115014286Y-58464819D02*
X115680952Y-58464819D01*
X115680952Y-58464819D02*
X115252381Y-59464819D01*
X95821667Y-103277200D02*
X95964524Y-103324819D01*
X95964524Y-103324819D02*
X96202619Y-103324819D01*
X96202619Y-103324819D02*
X96297857Y-103277200D01*
X96297857Y-103277200D02*
X96345476Y-103229580D01*
X96345476Y-103229580D02*
X96393095Y-103134342D01*
X96393095Y-103134342D02*
X96393095Y-103039104D01*
X96393095Y-103039104D02*
X96345476Y-102943866D01*
X96345476Y-102943866D02*
X96297857Y-102896247D01*
X96297857Y-102896247D02*
X96202619Y-102848628D01*
X96202619Y-102848628D02*
X96012143Y-102801009D01*
X96012143Y-102801009D02*
X95916905Y-102753390D01*
X95916905Y-102753390D02*
X95869286Y-102705771D01*
X95869286Y-102705771D02*
X95821667Y-102610533D01*
X95821667Y-102610533D02*
X95821667Y-102515295D01*
X95821667Y-102515295D02*
X95869286Y-102420057D01*
X95869286Y-102420057D02*
X95916905Y-102372438D01*
X95916905Y-102372438D02*
X96012143Y-102324819D01*
X96012143Y-102324819D02*
X96250238Y-102324819D01*
X96250238Y-102324819D02*
X96393095Y-102372438D01*
X96726429Y-102324819D02*
X96964524Y-103324819D01*
X96964524Y-103324819D02*
X97155000Y-102610533D01*
X97155000Y-102610533D02*
X97345476Y-103324819D01*
X97345476Y-103324819D02*
X97583572Y-102324819D01*
X98488333Y-103324819D02*
X97916905Y-103324819D01*
X98202619Y-103324819D02*
X98202619Y-102324819D01*
X98202619Y-102324819D02*
X98107381Y-102467676D01*
X98107381Y-102467676D02*
X98012143Y-102562914D01*
X98012143Y-102562914D02*
X97916905Y-102610533D01*
X98258333Y-142059819D02*
X97925000Y-141583628D01*
X97686905Y-142059819D02*
X97686905Y-141059819D01*
X97686905Y-141059819D02*
X98067857Y-141059819D01*
X98067857Y-141059819D02*
X98163095Y-141107438D01*
X98163095Y-141107438D02*
X98210714Y-141155057D01*
X98210714Y-141155057D02*
X98258333Y-141250295D01*
X98258333Y-141250295D02*
X98258333Y-141393152D01*
X98258333Y-141393152D02*
X98210714Y-141488390D01*
X98210714Y-141488390D02*
X98163095Y-141536009D01*
X98163095Y-141536009D02*
X98067857Y-141583628D01*
X98067857Y-141583628D02*
X97686905Y-141583628D01*
X98639286Y-141155057D02*
X98686905Y-141107438D01*
X98686905Y-141107438D02*
X98782143Y-141059819D01*
X98782143Y-141059819D02*
X99020238Y-141059819D01*
X99020238Y-141059819D02*
X99115476Y-141107438D01*
X99115476Y-141107438D02*
X99163095Y-141155057D01*
X99163095Y-141155057D02*
X99210714Y-141250295D01*
X99210714Y-141250295D02*
X99210714Y-141345533D01*
X99210714Y-141345533D02*
X99163095Y-141488390D01*
X99163095Y-141488390D02*
X98591667Y-142059819D01*
X98591667Y-142059819D02*
X99210714Y-142059819D01*
X161374761Y-56334819D02*
X161041428Y-55858628D01*
X160803333Y-56334819D02*
X160803333Y-55334819D01*
X160803333Y-55334819D02*
X161184285Y-55334819D01*
X161184285Y-55334819D02*
X161279523Y-55382438D01*
X161279523Y-55382438D02*
X161327142Y-55430057D01*
X161327142Y-55430057D02*
X161374761Y-55525295D01*
X161374761Y-55525295D02*
X161374761Y-55668152D01*
X161374761Y-55668152D02*
X161327142Y-55763390D01*
X161327142Y-55763390D02*
X161279523Y-55811009D01*
X161279523Y-55811009D02*
X161184285Y-55858628D01*
X161184285Y-55858628D02*
X160803333Y-55858628D01*
X161660476Y-55334819D02*
X161993809Y-56334819D01*
X161993809Y-56334819D02*
X162327142Y-55334819D01*
X162565238Y-55334819D02*
X163231904Y-55334819D01*
X163231904Y-55334819D02*
X162803333Y-56334819D01*
X105243333Y-142694819D02*
X104910000Y-142218628D01*
X104671905Y-142694819D02*
X104671905Y-141694819D01*
X104671905Y-141694819D02*
X105052857Y-141694819D01*
X105052857Y-141694819D02*
X105148095Y-141742438D01*
X105148095Y-141742438D02*
X105195714Y-141790057D01*
X105195714Y-141790057D02*
X105243333Y-141885295D01*
X105243333Y-141885295D02*
X105243333Y-142028152D01*
X105243333Y-142028152D02*
X105195714Y-142123390D01*
X105195714Y-142123390D02*
X105148095Y-142171009D01*
X105148095Y-142171009D02*
X105052857Y-142218628D01*
X105052857Y-142218628D02*
X104671905Y-142218628D01*
X106100476Y-142028152D02*
X106100476Y-142694819D01*
X105862381Y-141647200D02*
X105624286Y-142361485D01*
X105624286Y-142361485D02*
X106243333Y-142361485D01*
X168129819Y-109465238D02*
X167653628Y-109798571D01*
X168129819Y-110036666D02*
X167129819Y-110036666D01*
X167129819Y-110036666D02*
X167129819Y-109655714D01*
X167129819Y-109655714D02*
X167177438Y-109560476D01*
X167177438Y-109560476D02*
X167225057Y-109512857D01*
X167225057Y-109512857D02*
X167320295Y-109465238D01*
X167320295Y-109465238D02*
X167463152Y-109465238D01*
X167463152Y-109465238D02*
X167558390Y-109512857D01*
X167558390Y-109512857D02*
X167606009Y-109560476D01*
X167606009Y-109560476D02*
X167653628Y-109655714D01*
X167653628Y-109655714D02*
X167653628Y-110036666D01*
X167129819Y-109179523D02*
X168129819Y-108846190D01*
X168129819Y-108846190D02*
X167129819Y-108512857D01*
X167129819Y-108274761D02*
X167129819Y-107655714D01*
X167129819Y-107655714D02*
X167510771Y-107989047D01*
X167510771Y-107989047D02*
X167510771Y-107846190D01*
X167510771Y-107846190D02*
X167558390Y-107750952D01*
X167558390Y-107750952D02*
X167606009Y-107703333D01*
X167606009Y-107703333D02*
X167701247Y-107655714D01*
X167701247Y-107655714D02*
X167939342Y-107655714D01*
X167939342Y-107655714D02*
X168034580Y-107703333D01*
X168034580Y-107703333D02*
X168082200Y-107750952D01*
X168082200Y-107750952D02*
X168129819Y-107846190D01*
X168129819Y-107846190D02*
X168129819Y-108131904D01*
X168129819Y-108131904D02*
X168082200Y-108227142D01*
X168082200Y-108227142D02*
X168034580Y-108274761D01*
X124023333Y-69574580D02*
X123975714Y-69622200D01*
X123975714Y-69622200D02*
X123832857Y-69669819D01*
X123832857Y-69669819D02*
X123737619Y-69669819D01*
X123737619Y-69669819D02*
X123594762Y-69622200D01*
X123594762Y-69622200D02*
X123499524Y-69526961D01*
X123499524Y-69526961D02*
X123451905Y-69431723D01*
X123451905Y-69431723D02*
X123404286Y-69241247D01*
X123404286Y-69241247D02*
X123404286Y-69098390D01*
X123404286Y-69098390D02*
X123451905Y-68907914D01*
X123451905Y-68907914D02*
X123499524Y-68812676D01*
X123499524Y-68812676D02*
X123594762Y-68717438D01*
X123594762Y-68717438D02*
X123737619Y-68669819D01*
X123737619Y-68669819D02*
X123832857Y-68669819D01*
X123832857Y-68669819D02*
X123975714Y-68717438D01*
X123975714Y-68717438D02*
X124023333Y-68765057D01*
X124975714Y-69669819D02*
X124404286Y-69669819D01*
X124690000Y-69669819D02*
X124690000Y-68669819D01*
X124690000Y-68669819D02*
X124594762Y-68812676D01*
X124594762Y-68812676D02*
X124499524Y-68907914D01*
X124499524Y-68907914D02*
X124404286Y-68955533D01*
X123244819Y-64628333D02*
X123959104Y-64628333D01*
X123959104Y-64628333D02*
X124101961Y-64675952D01*
X124101961Y-64675952D02*
X124197200Y-64771190D01*
X124197200Y-64771190D02*
X124244819Y-64914047D01*
X124244819Y-64914047D02*
X124244819Y-65009285D01*
X124244819Y-63628333D02*
X124244819Y-64199761D01*
X124244819Y-63914047D02*
X123244819Y-63914047D01*
X123244819Y-63914047D02*
X123387676Y-64009285D01*
X123387676Y-64009285D02*
X123482914Y-64104523D01*
X123482914Y-64104523D02*
X123530533Y-64199761D01*
X191854761Y-56334819D02*
X191521428Y-55858628D01*
X191283333Y-56334819D02*
X191283333Y-55334819D01*
X191283333Y-55334819D02*
X191664285Y-55334819D01*
X191664285Y-55334819D02*
X191759523Y-55382438D01*
X191759523Y-55382438D02*
X191807142Y-55430057D01*
X191807142Y-55430057D02*
X191854761Y-55525295D01*
X191854761Y-55525295D02*
X191854761Y-55668152D01*
X191854761Y-55668152D02*
X191807142Y-55763390D01*
X191807142Y-55763390D02*
X191759523Y-55811009D01*
X191759523Y-55811009D02*
X191664285Y-55858628D01*
X191664285Y-55858628D02*
X191283333Y-55858628D01*
X192140476Y-55334819D02*
X192473809Y-56334819D01*
X192473809Y-56334819D02*
X192807142Y-55334819D01*
X193616666Y-55334819D02*
X193140476Y-55334819D01*
X193140476Y-55334819D02*
X193092857Y-55811009D01*
X193092857Y-55811009D02*
X193140476Y-55763390D01*
X193140476Y-55763390D02*
X193235714Y-55715771D01*
X193235714Y-55715771D02*
X193473809Y-55715771D01*
X193473809Y-55715771D02*
X193569047Y-55763390D01*
X193569047Y-55763390D02*
X193616666Y-55811009D01*
X193616666Y-55811009D02*
X193664285Y-55906247D01*
X193664285Y-55906247D02*
X193664285Y-56144342D01*
X193664285Y-56144342D02*
X193616666Y-56239580D01*
X193616666Y-56239580D02*
X193569047Y-56287200D01*
X193569047Y-56287200D02*
X193473809Y-56334819D01*
X193473809Y-56334819D02*
X193235714Y-56334819D01*
X193235714Y-56334819D02*
X193140476Y-56287200D01*
X193140476Y-56287200D02*
X193092857Y-56239580D01*
X176614761Y-56334819D02*
X176281428Y-55858628D01*
X176043333Y-56334819D02*
X176043333Y-55334819D01*
X176043333Y-55334819D02*
X176424285Y-55334819D01*
X176424285Y-55334819D02*
X176519523Y-55382438D01*
X176519523Y-55382438D02*
X176567142Y-55430057D01*
X176567142Y-55430057D02*
X176614761Y-55525295D01*
X176614761Y-55525295D02*
X176614761Y-55668152D01*
X176614761Y-55668152D02*
X176567142Y-55763390D01*
X176567142Y-55763390D02*
X176519523Y-55811009D01*
X176519523Y-55811009D02*
X176424285Y-55858628D01*
X176424285Y-55858628D02*
X176043333Y-55858628D01*
X176900476Y-55334819D02*
X177233809Y-56334819D01*
X177233809Y-56334819D02*
X177567142Y-55334819D01*
X178329047Y-55334819D02*
X178138571Y-55334819D01*
X178138571Y-55334819D02*
X178043333Y-55382438D01*
X178043333Y-55382438D02*
X177995714Y-55430057D01*
X177995714Y-55430057D02*
X177900476Y-55572914D01*
X177900476Y-55572914D02*
X177852857Y-55763390D01*
X177852857Y-55763390D02*
X177852857Y-56144342D01*
X177852857Y-56144342D02*
X177900476Y-56239580D01*
X177900476Y-56239580D02*
X177948095Y-56287200D01*
X177948095Y-56287200D02*
X178043333Y-56334819D01*
X178043333Y-56334819D02*
X178233809Y-56334819D01*
X178233809Y-56334819D02*
X178329047Y-56287200D01*
X178329047Y-56287200D02*
X178376666Y-56239580D01*
X178376666Y-56239580D02*
X178424285Y-56144342D01*
X178424285Y-56144342D02*
X178424285Y-55906247D01*
X178424285Y-55906247D02*
X178376666Y-55811009D01*
X178376666Y-55811009D02*
X178329047Y-55763390D01*
X178329047Y-55763390D02*
X178233809Y-55715771D01*
X178233809Y-55715771D02*
X178043333Y-55715771D01*
X178043333Y-55715771D02*
X177948095Y-55763390D01*
X177948095Y-55763390D02*
X177900476Y-55811009D01*
X177900476Y-55811009D02*
X177852857Y-55906247D01*
X121899167Y-63272200D02*
X122042024Y-63319819D01*
X122042024Y-63319819D02*
X122280119Y-63319819D01*
X122280119Y-63319819D02*
X122375357Y-63272200D01*
X122375357Y-63272200D02*
X122422976Y-63224580D01*
X122422976Y-63224580D02*
X122470595Y-63129342D01*
X122470595Y-63129342D02*
X122470595Y-63034104D01*
X122470595Y-63034104D02*
X122422976Y-62938866D01*
X122422976Y-62938866D02*
X122375357Y-62891247D01*
X122375357Y-62891247D02*
X122280119Y-62843628D01*
X122280119Y-62843628D02*
X122089643Y-62796009D01*
X122089643Y-62796009D02*
X121994405Y-62748390D01*
X121994405Y-62748390D02*
X121946786Y-62700771D01*
X121946786Y-62700771D02*
X121899167Y-62605533D01*
X121899167Y-62605533D02*
X121899167Y-62510295D01*
X121899167Y-62510295D02*
X121946786Y-62415057D01*
X121946786Y-62415057D02*
X121994405Y-62367438D01*
X121994405Y-62367438D02*
X122089643Y-62319819D01*
X122089643Y-62319819D02*
X122327738Y-62319819D01*
X122327738Y-62319819D02*
X122470595Y-62367438D01*
X122803929Y-62319819D02*
X123042024Y-63319819D01*
X123042024Y-63319819D02*
X123232500Y-62605533D01*
X123232500Y-62605533D02*
X123422976Y-63319819D01*
X123422976Y-63319819D02*
X123661072Y-62319819D01*
X124089643Y-63319819D02*
X124280119Y-63319819D01*
X124280119Y-63319819D02*
X124375357Y-63272200D01*
X124375357Y-63272200D02*
X124422976Y-63224580D01*
X124422976Y-63224580D02*
X124518214Y-63081723D01*
X124518214Y-63081723D02*
X124565833Y-62891247D01*
X124565833Y-62891247D02*
X124565833Y-62510295D01*
X124565833Y-62510295D02*
X124518214Y-62415057D01*
X124518214Y-62415057D02*
X124470595Y-62367438D01*
X124470595Y-62367438D02*
X124375357Y-62319819D01*
X124375357Y-62319819D02*
X124184881Y-62319819D01*
X124184881Y-62319819D02*
X124089643Y-62367438D01*
X124089643Y-62367438D02*
X124042024Y-62415057D01*
X124042024Y-62415057D02*
X123994405Y-62510295D01*
X123994405Y-62510295D02*
X123994405Y-62748390D01*
X123994405Y-62748390D02*
X124042024Y-62843628D01*
X124042024Y-62843628D02*
X124089643Y-62891247D01*
X124089643Y-62891247D02*
X124184881Y-62938866D01*
X124184881Y-62938866D02*
X124375357Y-62938866D01*
X124375357Y-62938866D02*
X124470595Y-62891247D01*
X124470595Y-62891247D02*
X124518214Y-62843628D01*
X124518214Y-62843628D02*
X124565833Y-62748390D01*
X146769761Y-56334819D02*
X146436428Y-55858628D01*
X146198333Y-56334819D02*
X146198333Y-55334819D01*
X146198333Y-55334819D02*
X146579285Y-55334819D01*
X146579285Y-55334819D02*
X146674523Y-55382438D01*
X146674523Y-55382438D02*
X146722142Y-55430057D01*
X146722142Y-55430057D02*
X146769761Y-55525295D01*
X146769761Y-55525295D02*
X146769761Y-55668152D01*
X146769761Y-55668152D02*
X146722142Y-55763390D01*
X146722142Y-55763390D02*
X146674523Y-55811009D01*
X146674523Y-55811009D02*
X146579285Y-55858628D01*
X146579285Y-55858628D02*
X146198333Y-55858628D01*
X147055476Y-55334819D02*
X147388809Y-56334819D01*
X147388809Y-56334819D02*
X147722142Y-55334819D01*
X148198333Y-55763390D02*
X148103095Y-55715771D01*
X148103095Y-55715771D02*
X148055476Y-55668152D01*
X148055476Y-55668152D02*
X148007857Y-55572914D01*
X148007857Y-55572914D02*
X148007857Y-55525295D01*
X148007857Y-55525295D02*
X148055476Y-55430057D01*
X148055476Y-55430057D02*
X148103095Y-55382438D01*
X148103095Y-55382438D02*
X148198333Y-55334819D01*
X148198333Y-55334819D02*
X148388809Y-55334819D01*
X148388809Y-55334819D02*
X148484047Y-55382438D01*
X148484047Y-55382438D02*
X148531666Y-55430057D01*
X148531666Y-55430057D02*
X148579285Y-55525295D01*
X148579285Y-55525295D02*
X148579285Y-55572914D01*
X148579285Y-55572914D02*
X148531666Y-55668152D01*
X148531666Y-55668152D02*
X148484047Y-55715771D01*
X148484047Y-55715771D02*
X148388809Y-55763390D01*
X148388809Y-55763390D02*
X148198333Y-55763390D01*
X148198333Y-55763390D02*
X148103095Y-55811009D01*
X148103095Y-55811009D02*
X148055476Y-55858628D01*
X148055476Y-55858628D02*
X148007857Y-55953866D01*
X148007857Y-55953866D02*
X148007857Y-56144342D01*
X148007857Y-56144342D02*
X148055476Y-56239580D01*
X148055476Y-56239580D02*
X148103095Y-56287200D01*
X148103095Y-56287200D02*
X148198333Y-56334819D01*
X148198333Y-56334819D02*
X148388809Y-56334819D01*
X148388809Y-56334819D02*
X148484047Y-56287200D01*
X148484047Y-56287200D02*
X148531666Y-56239580D01*
X148531666Y-56239580D02*
X148579285Y-56144342D01*
X148579285Y-56144342D02*
X148579285Y-55953866D01*
X148579285Y-55953866D02*
X148531666Y-55858628D01*
X148531666Y-55858628D02*
X148484047Y-55811009D01*
X148484047Y-55811009D02*
X148388809Y-55763390D01*
X154159819Y-109410238D02*
X153683628Y-109743571D01*
X154159819Y-109981666D02*
X153159819Y-109981666D01*
X153159819Y-109981666D02*
X153159819Y-109600714D01*
X153159819Y-109600714D02*
X153207438Y-109505476D01*
X153207438Y-109505476D02*
X153255057Y-109457857D01*
X153255057Y-109457857D02*
X153350295Y-109410238D01*
X153350295Y-109410238D02*
X153493152Y-109410238D01*
X153493152Y-109410238D02*
X153588390Y-109457857D01*
X153588390Y-109457857D02*
X153636009Y-109505476D01*
X153636009Y-109505476D02*
X153683628Y-109600714D01*
X153683628Y-109600714D02*
X153683628Y-109981666D01*
X153159819Y-109124523D02*
X154159819Y-108791190D01*
X154159819Y-108791190D02*
X153159819Y-108457857D01*
X153493152Y-107695952D02*
X154159819Y-107695952D01*
X153112200Y-107934047D02*
X153826485Y-108172142D01*
X153826485Y-108172142D02*
X153826485Y-107553095D01*
X112966667Y-78512200D02*
X113109524Y-78559819D01*
X113109524Y-78559819D02*
X113347619Y-78559819D01*
X113347619Y-78559819D02*
X113442857Y-78512200D01*
X113442857Y-78512200D02*
X113490476Y-78464580D01*
X113490476Y-78464580D02*
X113538095Y-78369342D01*
X113538095Y-78369342D02*
X113538095Y-78274104D01*
X113538095Y-78274104D02*
X113490476Y-78178866D01*
X113490476Y-78178866D02*
X113442857Y-78131247D01*
X113442857Y-78131247D02*
X113347619Y-78083628D01*
X113347619Y-78083628D02*
X113157143Y-78036009D01*
X113157143Y-78036009D02*
X113061905Y-77988390D01*
X113061905Y-77988390D02*
X113014286Y-77940771D01*
X113014286Y-77940771D02*
X112966667Y-77845533D01*
X112966667Y-77845533D02*
X112966667Y-77750295D01*
X112966667Y-77750295D02*
X113014286Y-77655057D01*
X113014286Y-77655057D02*
X113061905Y-77607438D01*
X113061905Y-77607438D02*
X113157143Y-77559819D01*
X113157143Y-77559819D02*
X113395238Y-77559819D01*
X113395238Y-77559819D02*
X113538095Y-77607438D01*
X113871429Y-77559819D02*
X114109524Y-78559819D01*
X114109524Y-78559819D02*
X114300000Y-77845533D01*
X114300000Y-77845533D02*
X114490476Y-78559819D01*
X114490476Y-78559819D02*
X114728572Y-77559819D01*
X115252381Y-77988390D02*
X115157143Y-77940771D01*
X115157143Y-77940771D02*
X115109524Y-77893152D01*
X115109524Y-77893152D02*
X115061905Y-77797914D01*
X115061905Y-77797914D02*
X115061905Y-77750295D01*
X115061905Y-77750295D02*
X115109524Y-77655057D01*
X115109524Y-77655057D02*
X115157143Y-77607438D01*
X115157143Y-77607438D02*
X115252381Y-77559819D01*
X115252381Y-77559819D02*
X115442857Y-77559819D01*
X115442857Y-77559819D02*
X115538095Y-77607438D01*
X115538095Y-77607438D02*
X115585714Y-77655057D01*
X115585714Y-77655057D02*
X115633333Y-77750295D01*
X115633333Y-77750295D02*
X115633333Y-77797914D01*
X115633333Y-77797914D02*
X115585714Y-77893152D01*
X115585714Y-77893152D02*
X115538095Y-77940771D01*
X115538095Y-77940771D02*
X115442857Y-77988390D01*
X115442857Y-77988390D02*
X115252381Y-77988390D01*
X115252381Y-77988390D02*
X115157143Y-78036009D01*
X115157143Y-78036009D02*
X115109524Y-78083628D01*
X115109524Y-78083628D02*
X115061905Y-78178866D01*
X115061905Y-78178866D02*
X115061905Y-78369342D01*
X115061905Y-78369342D02*
X115109524Y-78464580D01*
X115109524Y-78464580D02*
X115157143Y-78512200D01*
X115157143Y-78512200D02*
X115252381Y-78559819D01*
X115252381Y-78559819D02*
X115442857Y-78559819D01*
X115442857Y-78559819D02*
X115538095Y-78512200D01*
X115538095Y-78512200D02*
X115585714Y-78464580D01*
X115585714Y-78464580D02*
X115633333Y-78369342D01*
X115633333Y-78369342D02*
X115633333Y-78178866D01*
X115633333Y-78178866D02*
X115585714Y-78083628D01*
X115585714Y-78083628D02*
X115538095Y-78036009D01*
X115538095Y-78036009D02*
X115442857Y-77988390D01*
X84288333Y-121104819D02*
X83955000Y-120628628D01*
X83716905Y-121104819D02*
X83716905Y-120104819D01*
X83716905Y-120104819D02*
X84097857Y-120104819D01*
X84097857Y-120104819D02*
X84193095Y-120152438D01*
X84193095Y-120152438D02*
X84240714Y-120200057D01*
X84240714Y-120200057D02*
X84288333Y-120295295D01*
X84288333Y-120295295D02*
X84288333Y-120438152D01*
X84288333Y-120438152D02*
X84240714Y-120533390D01*
X84240714Y-120533390D02*
X84193095Y-120581009D01*
X84193095Y-120581009D02*
X84097857Y-120628628D01*
X84097857Y-120628628D02*
X83716905Y-120628628D01*
X85240714Y-121104819D02*
X84669286Y-121104819D01*
X84955000Y-121104819D02*
X84955000Y-120104819D01*
X84955000Y-120104819D02*
X84859762Y-120247676D01*
X84859762Y-120247676D02*
X84764524Y-120342914D01*
X84764524Y-120342914D02*
X84669286Y-120390533D01*
X86828333Y-98879819D02*
X86495000Y-98403628D01*
X86256905Y-98879819D02*
X86256905Y-97879819D01*
X86256905Y-97879819D02*
X86637857Y-97879819D01*
X86637857Y-97879819D02*
X86733095Y-97927438D01*
X86733095Y-97927438D02*
X86780714Y-97975057D01*
X86780714Y-97975057D02*
X86828333Y-98070295D01*
X86828333Y-98070295D02*
X86828333Y-98213152D01*
X86828333Y-98213152D02*
X86780714Y-98308390D01*
X86780714Y-98308390D02*
X86733095Y-98356009D01*
X86733095Y-98356009D02*
X86637857Y-98403628D01*
X86637857Y-98403628D02*
X86256905Y-98403628D01*
X87685476Y-97879819D02*
X87495000Y-97879819D01*
X87495000Y-97879819D02*
X87399762Y-97927438D01*
X87399762Y-97927438D02*
X87352143Y-97975057D01*
X87352143Y-97975057D02*
X87256905Y-98117914D01*
X87256905Y-98117914D02*
X87209286Y-98308390D01*
X87209286Y-98308390D02*
X87209286Y-98689342D01*
X87209286Y-98689342D02*
X87256905Y-98784580D01*
X87256905Y-98784580D02*
X87304524Y-98832200D01*
X87304524Y-98832200D02*
X87399762Y-98879819D01*
X87399762Y-98879819D02*
X87590238Y-98879819D01*
X87590238Y-98879819D02*
X87685476Y-98832200D01*
X87685476Y-98832200D02*
X87733095Y-98784580D01*
X87733095Y-98784580D02*
X87780714Y-98689342D01*
X87780714Y-98689342D02*
X87780714Y-98451247D01*
X87780714Y-98451247D02*
X87733095Y-98356009D01*
X87733095Y-98356009D02*
X87685476Y-98308390D01*
X87685476Y-98308390D02*
X87590238Y-98260771D01*
X87590238Y-98260771D02*
X87399762Y-98260771D01*
X87399762Y-98260771D02*
X87304524Y-98308390D01*
X87304524Y-98308390D02*
X87256905Y-98356009D01*
X87256905Y-98356009D02*
X87209286Y-98451247D01*
X101433333Y-96974819D02*
X101100000Y-96498628D01*
X100861905Y-96974819D02*
X100861905Y-95974819D01*
X100861905Y-95974819D02*
X101242857Y-95974819D01*
X101242857Y-95974819D02*
X101338095Y-96022438D01*
X101338095Y-96022438D02*
X101385714Y-96070057D01*
X101385714Y-96070057D02*
X101433333Y-96165295D01*
X101433333Y-96165295D02*
X101433333Y-96308152D01*
X101433333Y-96308152D02*
X101385714Y-96403390D01*
X101385714Y-96403390D02*
X101338095Y-96451009D01*
X101338095Y-96451009D02*
X101242857Y-96498628D01*
X101242857Y-96498628D02*
X100861905Y-96498628D01*
X102004762Y-96403390D02*
X101909524Y-96355771D01*
X101909524Y-96355771D02*
X101861905Y-96308152D01*
X101861905Y-96308152D02*
X101814286Y-96212914D01*
X101814286Y-96212914D02*
X101814286Y-96165295D01*
X101814286Y-96165295D02*
X101861905Y-96070057D01*
X101861905Y-96070057D02*
X101909524Y-96022438D01*
X101909524Y-96022438D02*
X102004762Y-95974819D01*
X102004762Y-95974819D02*
X102195238Y-95974819D01*
X102195238Y-95974819D02*
X102290476Y-96022438D01*
X102290476Y-96022438D02*
X102338095Y-96070057D01*
X102338095Y-96070057D02*
X102385714Y-96165295D01*
X102385714Y-96165295D02*
X102385714Y-96212914D01*
X102385714Y-96212914D02*
X102338095Y-96308152D01*
X102338095Y-96308152D02*
X102290476Y-96355771D01*
X102290476Y-96355771D02*
X102195238Y-96403390D01*
X102195238Y-96403390D02*
X102004762Y-96403390D01*
X102004762Y-96403390D02*
X101909524Y-96451009D01*
X101909524Y-96451009D02*
X101861905Y-96498628D01*
X101861905Y-96498628D02*
X101814286Y-96593866D01*
X101814286Y-96593866D02*
X101814286Y-96784342D01*
X101814286Y-96784342D02*
X101861905Y-96879580D01*
X101861905Y-96879580D02*
X101909524Y-96927200D01*
X101909524Y-96927200D02*
X102004762Y-96974819D01*
X102004762Y-96974819D02*
X102195238Y-96974819D01*
X102195238Y-96974819D02*
X102290476Y-96927200D01*
X102290476Y-96927200D02*
X102338095Y-96879580D01*
X102338095Y-96879580D02*
X102385714Y-96784342D01*
X102385714Y-96784342D02*
X102385714Y-96593866D01*
X102385714Y-96593866D02*
X102338095Y-96498628D01*
X102338095Y-96498628D02*
X102290476Y-96451009D01*
X102290476Y-96451009D02*
X102195238Y-96403390D01*
X131953095Y-141484819D02*
X131953095Y-142294342D01*
X131953095Y-142294342D02*
X132000714Y-142389580D01*
X132000714Y-142389580D02*
X132048333Y-142437200D01*
X132048333Y-142437200D02*
X132143571Y-142484819D01*
X132143571Y-142484819D02*
X132334047Y-142484819D01*
X132334047Y-142484819D02*
X132429285Y-142437200D01*
X132429285Y-142437200D02*
X132476904Y-142389580D01*
X132476904Y-142389580D02*
X132524523Y-142294342D01*
X132524523Y-142294342D02*
X132524523Y-141484819D01*
X133524523Y-142484819D02*
X132953095Y-142484819D01*
X133238809Y-142484819D02*
X133238809Y-141484819D01*
X133238809Y-141484819D02*
X133143571Y-141627676D01*
X133143571Y-141627676D02*
X133048333Y-141722914D01*
X133048333Y-141722914D02*
X132953095Y-141770533D01*
D12*
%TO.C,R7*%
X104962936Y-75925000D02*
X106417064Y-75925000D01*
X104962936Y-77745000D02*
X106417064Y-77745000D01*
%TO.C,SW6*%
X86680000Y-80095000D02*
X86680000Y-82605000D01*
X86680000Y-80095000D02*
X98900000Y-80095000D01*
X86680000Y-84905000D02*
X86680000Y-87505000D01*
X86680000Y-89805000D02*
X86680000Y-92315000D01*
X98900000Y-80095000D02*
X98900000Y-82605000D01*
X98900000Y-84905000D02*
X98900000Y-87505000D01*
X98900000Y-89805000D02*
X98900000Y-92315000D01*
X98900000Y-92315000D02*
X86680000Y-92315000D01*
%TO.C,SW5*%
X86680000Y-61200000D02*
X86680000Y-63710000D01*
X86680000Y-61200000D02*
X98900000Y-61200000D01*
X86680000Y-66010000D02*
X86680000Y-68610000D01*
X86680000Y-70910000D02*
X86680000Y-73420000D01*
X98900000Y-61200000D02*
X98900000Y-63710000D01*
X98900000Y-66010000D02*
X98900000Y-68610000D01*
X98900000Y-70910000D02*
X98900000Y-73420000D01*
X98900000Y-73420000D02*
X86680000Y-73420000D01*
%TO.C,RV2*%
X172545000Y-71195000D02*
X172545000Y-74580000D01*
X172545000Y-77851000D02*
X172545000Y-139780000D01*
X172545000Y-143051000D02*
X172545000Y-146435000D01*
X174592000Y-71195000D02*
X172545000Y-71195000D01*
X177165000Y-78815000D02*
X176415000Y-79565000D01*
X177165000Y-78815000D02*
X177165000Y-138815000D01*
X177165000Y-138815000D02*
X176415000Y-138065000D01*
X177740000Y-71195000D02*
X176237000Y-71195000D01*
X177915000Y-79565000D02*
X177165000Y-78815000D01*
X177915000Y-138065000D02*
X177165000Y-138815000D01*
X178092000Y-146435000D02*
X172545000Y-146435000D01*
X178415000Y-70390000D02*
X178915000Y-70890000D01*
X178665000Y-78815000D02*
X175665000Y-78815000D01*
X178665000Y-138815000D02*
X175665000Y-138815000D01*
X178915000Y-70890000D02*
X179415000Y-70390000D01*
X179415000Y-70390000D02*
X178415000Y-70390000D01*
X181785000Y-71195000D02*
X180090000Y-71195000D01*
X181785000Y-71195000D02*
X181785000Y-75780000D01*
X181785000Y-79051000D02*
X181785000Y-138580000D01*
X181785000Y-141851000D02*
X181785000Y-146435000D01*
X181785000Y-146435000D02*
X179738000Y-146435000D01*
%TO.C,SW4*%
X103210000Y-124105000D02*
X103210000Y-126615000D01*
X103210000Y-124105000D02*
X115430000Y-124105000D01*
X103210000Y-128915000D02*
X103210000Y-131515000D01*
X103210000Y-133815000D02*
X103210000Y-136325000D01*
X115430000Y-124105000D02*
X115430000Y-126615000D01*
X115430000Y-128915000D02*
X115430000Y-131515000D01*
X115430000Y-133815000D02*
X115430000Y-136325000D01*
X115430000Y-136325000D02*
X103210000Y-136325000D01*
%TO.C,SW2*%
X86660000Y-124105000D02*
X86660000Y-126615000D01*
X86660000Y-124105000D02*
X98880000Y-124105000D01*
X86660000Y-128915000D02*
X86660000Y-131515000D01*
X86660000Y-133815000D02*
X86660000Y-136325000D01*
X98880000Y-124105000D02*
X98880000Y-126615000D01*
X98880000Y-128915000D02*
X98880000Y-131515000D01*
X98880000Y-133815000D02*
X98880000Y-136325000D01*
X98880000Y-136325000D02*
X86660000Y-136325000D01*
%TO.C,R5*%
X87182936Y-75925000D02*
X88637064Y-75925000D01*
X87182936Y-77745000D02*
X88637064Y-77745000D01*
%TO.C,RV1*%
X187785000Y-71195000D02*
X187785000Y-74580000D01*
X187785000Y-77851000D02*
X187785000Y-139780000D01*
X187785000Y-143051000D02*
X187785000Y-146435000D01*
X189832000Y-71195000D02*
X187785000Y-71195000D01*
X192405000Y-78815000D02*
X191655000Y-79565000D01*
X192405000Y-78815000D02*
X192405000Y-138815000D01*
X192405000Y-138815000D02*
X191655000Y-138065000D01*
X192980000Y-71195000D02*
X191477000Y-71195000D01*
X193155000Y-79565000D02*
X192405000Y-78815000D01*
X193155000Y-138065000D02*
X192405000Y-138815000D01*
X193332000Y-146435000D02*
X187785000Y-146435000D01*
X193655000Y-70390000D02*
X194155000Y-70890000D01*
X193905000Y-78815000D02*
X190905000Y-78815000D01*
X193905000Y-138815000D02*
X190905000Y-138815000D01*
X194155000Y-70890000D02*
X194655000Y-70390000D01*
X194655000Y-70390000D02*
X193655000Y-70390000D01*
X197025000Y-71195000D02*
X195330000Y-71195000D01*
X197025000Y-71195000D02*
X197025000Y-75780000D01*
X197025000Y-79051000D02*
X197025000Y-138580000D01*
X197025000Y-141851000D02*
X197025000Y-146435000D01*
X197025000Y-146435000D02*
X194978000Y-146435000D01*
%TO.C,R3*%
X104962936Y-119740000D02*
X106417064Y-119740000D01*
X104962936Y-121560000D02*
X106417064Y-121560000D01*
%TO.C,SW3*%
X103210000Y-105210000D02*
X103210000Y-107720000D01*
X103210000Y-105210000D02*
X115430000Y-105210000D01*
X103210000Y-110020000D02*
X103210000Y-112620000D01*
X103210000Y-114920000D02*
X103210000Y-117430000D01*
X115430000Y-105210000D02*
X115430000Y-107720000D01*
X115430000Y-110020000D02*
X115430000Y-112620000D01*
X115430000Y-114920000D02*
X115430000Y-117430000D01*
X115430000Y-117430000D02*
X103210000Y-117430000D01*
%TO.C,SW7*%
X103230000Y-61200000D02*
X103230000Y-63710000D01*
X103230000Y-61200000D02*
X115450000Y-61200000D01*
X103230000Y-66010000D02*
X103230000Y-68610000D01*
X103230000Y-70910000D02*
X103230000Y-73420000D01*
X115450000Y-61200000D02*
X115450000Y-63710000D01*
X115450000Y-66010000D02*
X115450000Y-68610000D01*
X115450000Y-70910000D02*
X115450000Y-73420000D01*
X115450000Y-73420000D02*
X103230000Y-73420000D01*
%TO.C,SW1*%
X86660000Y-105210000D02*
X86660000Y-107720000D01*
X86660000Y-105210000D02*
X98880000Y-105210000D01*
X86660000Y-110020000D02*
X86660000Y-112620000D01*
X86660000Y-114920000D02*
X86660000Y-117430000D01*
X98880000Y-105210000D02*
X98880000Y-107720000D01*
X98880000Y-110020000D02*
X98880000Y-112620000D01*
X98880000Y-114920000D02*
X98880000Y-117430000D01*
X98880000Y-117430000D02*
X86660000Y-117430000D01*
%TO.C,R2*%
X97697936Y-138155000D02*
X99152064Y-138155000D01*
X97697936Y-139975000D02*
X99152064Y-139975000D01*
%TO.C,RV7*%
X156955000Y-54205000D02*
X166895000Y-54205000D01*
X156955000Y-58070000D02*
X156955000Y-54205000D01*
X156955000Y-66445000D02*
X156955000Y-62580000D01*
X156955000Y-66445000D02*
X158554000Y-66445000D01*
X160296000Y-66445000D02*
X161055000Y-66445000D01*
X162796000Y-66445000D02*
X163555000Y-66445000D01*
X165295000Y-66445000D02*
X166895000Y-66445000D01*
X166895000Y-58070000D02*
X166895000Y-54205000D01*
X166895000Y-66445000D02*
X166895000Y-62580000D01*
%TO.C,R4*%
X104682936Y-139195000D02*
X106137064Y-139195000D01*
X104682936Y-141015000D02*
X106137064Y-141015000D01*
%TO.C,RV3*%
X157305000Y-71250000D02*
X157305000Y-74635000D01*
X157305000Y-77906000D02*
X157305000Y-139835000D01*
X157305000Y-143106000D02*
X157305000Y-146490000D01*
X159352000Y-71250000D02*
X157305000Y-71250000D01*
X161925000Y-78870000D02*
X161175000Y-79620000D01*
X161925000Y-78870000D02*
X161925000Y-138870000D01*
X161925000Y-138870000D02*
X161175000Y-138120000D01*
X162500000Y-71250000D02*
X160997000Y-71250000D01*
X162675000Y-79620000D02*
X161925000Y-78870000D01*
X162675000Y-138120000D02*
X161925000Y-138870000D01*
X162852000Y-146490000D02*
X157305000Y-146490000D01*
X163175000Y-70445000D02*
X163675000Y-70945000D01*
X163425000Y-78870000D02*
X160425000Y-78870000D01*
X163425000Y-138870000D02*
X160425000Y-138870000D01*
X163675000Y-70945000D02*
X164175000Y-70445000D01*
X164175000Y-70445000D02*
X163175000Y-70445000D01*
X166545000Y-71250000D02*
X164850000Y-71250000D01*
X166545000Y-71250000D02*
X166545000Y-75835000D01*
X166545000Y-79106000D02*
X166545000Y-138635000D01*
X166545000Y-141906000D02*
X166545000Y-146490000D01*
X166545000Y-146490000D02*
X164498000Y-146490000D01*
%TO.C,C1*%
X122109000Y-72760000D02*
X122109000Y-72020000D01*
X122149000Y-72927000D02*
X122149000Y-71853000D01*
X122189000Y-73054000D02*
X122189000Y-71726000D01*
X122229000Y-73158000D02*
X122229000Y-71622000D01*
X122269000Y-73249000D02*
X122269000Y-71531000D01*
X122309000Y-73330000D02*
X122309000Y-71450000D01*
X122349000Y-73403000D02*
X122349000Y-71377000D01*
X122389000Y-71550000D02*
X122389000Y-71310000D01*
X122389000Y-73470000D02*
X122389000Y-73230000D01*
X122429000Y-71550000D02*
X122429000Y-71248000D01*
X122429000Y-73532000D02*
X122429000Y-73230000D01*
X122469000Y-71550000D02*
X122469000Y-71190000D01*
X122469000Y-73590000D02*
X122469000Y-73230000D01*
X122509000Y-71550000D02*
X122509000Y-71136000D01*
X122509000Y-73644000D02*
X122509000Y-73230000D01*
X122549000Y-71550000D02*
X122549000Y-71086000D01*
X122549000Y-73694000D02*
X122549000Y-73230000D01*
X122589000Y-71550000D02*
X122589000Y-71039000D01*
X122589000Y-73741000D02*
X122589000Y-73230000D01*
X122629000Y-71550000D02*
X122629000Y-70994000D01*
X122629000Y-73786000D02*
X122629000Y-73230000D01*
X122669000Y-71550000D02*
X122669000Y-70952000D01*
X122669000Y-73828000D02*
X122669000Y-73230000D01*
X122709000Y-71550000D02*
X122709000Y-70912000D01*
X122709000Y-73868000D02*
X122709000Y-73230000D01*
X122749000Y-71550000D02*
X122749000Y-70874000D01*
X122749000Y-73906000D02*
X122749000Y-73230000D01*
X122789000Y-71550000D02*
X122789000Y-70838000D01*
X122789000Y-73942000D02*
X122789000Y-73230000D01*
X122829000Y-71550000D02*
X122829000Y-70803000D01*
X122829000Y-73977000D02*
X122829000Y-73230000D01*
X122869000Y-71550000D02*
X122869000Y-70771000D01*
X122869000Y-74009000D02*
X122869000Y-73230000D01*
X122909000Y-71550000D02*
X122909000Y-70740000D01*
X122909000Y-74040000D02*
X122909000Y-73230000D01*
X122949000Y-71550000D02*
X122949000Y-70710000D01*
X122949000Y-74070000D02*
X122949000Y-73230000D01*
X122989000Y-71550000D02*
X122989000Y-70682000D01*
X122989000Y-74098000D02*
X122989000Y-73230000D01*
X123029000Y-71550000D02*
X123029000Y-70655000D01*
X123029000Y-74125000D02*
X123029000Y-73230000D01*
X123069000Y-71550000D02*
X123069000Y-70630000D01*
X123069000Y-74150000D02*
X123069000Y-73230000D01*
X123109000Y-71550000D02*
X123109000Y-70605000D01*
X123109000Y-74175000D02*
X123109000Y-73230000D01*
X123149000Y-71550000D02*
X123149000Y-70582000D01*
X123149000Y-74198000D02*
X123149000Y-73230000D01*
X123189000Y-71550000D02*
X123189000Y-70560000D01*
X123189000Y-74220000D02*
X123189000Y-73230000D01*
X123229000Y-71550000D02*
X123229000Y-70539000D01*
X123229000Y-74241000D02*
X123229000Y-73230000D01*
X123269000Y-71550000D02*
X123269000Y-70520000D01*
X123269000Y-74260000D02*
X123269000Y-73230000D01*
X123309000Y-71550000D02*
X123309000Y-70501000D01*
X123309000Y-74279000D02*
X123309000Y-73230000D01*
X123349000Y-71550000D02*
X123349000Y-70483000D01*
X123349000Y-74297000D02*
X123349000Y-73230000D01*
X123389000Y-71550000D02*
X123389000Y-70466000D01*
X123389000Y-74314000D02*
X123389000Y-73230000D01*
X123429000Y-71550000D02*
X123429000Y-70450000D01*
X123429000Y-74330000D02*
X123429000Y-73230000D01*
X123469000Y-71550000D02*
X123469000Y-70436000D01*
X123469000Y-74344000D02*
X123469000Y-73230000D01*
X123510000Y-71550000D02*
X123510000Y-70422000D01*
X123510000Y-74358000D02*
X123510000Y-73230000D01*
X123550000Y-71550000D02*
X123550000Y-70408000D01*
X123550000Y-74372000D02*
X123550000Y-73230000D01*
X123590000Y-71550000D02*
X123590000Y-70396000D01*
X123590000Y-74384000D02*
X123590000Y-73230000D01*
X123630000Y-71550000D02*
X123630000Y-70385000D01*
X123630000Y-74395000D02*
X123630000Y-73230000D01*
X123670000Y-71550000D02*
X123670000Y-70374000D01*
X123670000Y-74406000D02*
X123670000Y-73230000D01*
X123710000Y-71550000D02*
X123710000Y-70365000D01*
X123710000Y-74415000D02*
X123710000Y-73230000D01*
X123750000Y-71550000D02*
X123750000Y-70356000D01*
X123750000Y-74424000D02*
X123750000Y-73230000D01*
X123790000Y-71550000D02*
X123790000Y-70348000D01*
X123790000Y-74432000D02*
X123790000Y-73230000D01*
X123830000Y-71550000D02*
X123830000Y-70340000D01*
X123830000Y-74440000D02*
X123830000Y-73230000D01*
X123870000Y-71550000D02*
X123870000Y-70334000D01*
X123870000Y-74446000D02*
X123870000Y-73230000D01*
X123910000Y-71550000D02*
X123910000Y-70328000D01*
X123910000Y-74452000D02*
X123910000Y-73230000D01*
X123950000Y-71550000D02*
X123950000Y-70323000D01*
X123950000Y-74457000D02*
X123950000Y-73230000D01*
X123990000Y-71550000D02*
X123990000Y-70319000D01*
X123990000Y-74461000D02*
X123990000Y-73230000D01*
X124030000Y-74464000D02*
X124030000Y-70316000D01*
X124070000Y-74467000D02*
X124070000Y-70313000D01*
X124110000Y-74469000D02*
X124110000Y-70311000D01*
X124150000Y-74470000D02*
X124150000Y-70310000D01*
X124190000Y-74470000D02*
X124190000Y-70310000D01*
X126259801Y-73785000D02*
X126259801Y-73385000D01*
X126459801Y-73585000D02*
X126059801Y-73585000D01*
X126310000Y-72390000D02*
G75*
G02*
X122070000Y-72390000I-2120000J0D01*
G01*
X122070000Y-72390000D02*
G75*
G02*
X126310000Y-72390000I2120000J0D01*
G01*
%TO.C,J1*%
X121220000Y-68005000D02*
X121220000Y-66675000D01*
X122550000Y-68005000D02*
X121220000Y-68005000D01*
X123820000Y-68005000D02*
X126420000Y-68005000D01*
X123820000Y-68005000D02*
X123820000Y-65345000D01*
X126420000Y-68005000D02*
X126420000Y-65345000D01*
X123820000Y-65345000D02*
X126420000Y-65345000D01*
%TO.C,RV5*%
X187480000Y-54205000D02*
X197420000Y-54205000D01*
X187480000Y-58070000D02*
X187480000Y-54205000D01*
X187480000Y-66445000D02*
X187480000Y-62580000D01*
X187480000Y-66445000D02*
X189079000Y-66445000D01*
X190821000Y-66445000D02*
X191580000Y-66445000D01*
X193321000Y-66445000D02*
X194080000Y-66445000D01*
X195820000Y-66445000D02*
X197420000Y-66445000D01*
X197420000Y-58070000D02*
X197420000Y-54205000D01*
X197420000Y-66445000D02*
X197420000Y-62580000D01*
%TO.C,RV6*%
X172195000Y-54205000D02*
X182135000Y-54205000D01*
X172195000Y-58070000D02*
X172195000Y-54205000D01*
X172195000Y-66445000D02*
X172195000Y-62580000D01*
X172195000Y-66445000D02*
X173794000Y-66445000D01*
X175536000Y-66445000D02*
X176295000Y-66445000D01*
X178036000Y-66445000D02*
X178795000Y-66445000D01*
X180535000Y-66445000D02*
X182135000Y-66445000D01*
X182135000Y-58070000D02*
X182135000Y-54205000D01*
X182135000Y-66445000D02*
X182135000Y-62580000D01*
%TO.C,SW9*%
X118042500Y-56395000D02*
X118042500Y-57778000D01*
X118042500Y-56395000D02*
X119426500Y-56395000D01*
X118282500Y-56635000D02*
X118282500Y-61475000D01*
X118282500Y-56635000D02*
X128182500Y-56635000D01*
X118282500Y-61475000D02*
X128182500Y-61475000D01*
X121202500Y-58420000D02*
X121202500Y-59690000D01*
X121202500Y-58540000D02*
X122555833Y-58540000D01*
X121202500Y-58660000D02*
X122555833Y-58660000D01*
X121202500Y-58780000D02*
X122555833Y-58780000D01*
X121202500Y-58900000D02*
X122555833Y-58900000D01*
X121202500Y-59020000D02*
X122555833Y-59020000D01*
X121202500Y-59140000D02*
X122555833Y-59140000D01*
X121202500Y-59260000D02*
X122555833Y-59260000D01*
X121202500Y-59380000D02*
X122555833Y-59380000D01*
X121202500Y-59500000D02*
X122555833Y-59500000D01*
X121202500Y-59620000D02*
X122555833Y-59620000D01*
X121202500Y-59690000D02*
X125262500Y-59690000D01*
X122555833Y-58420000D02*
X122555833Y-59690000D01*
X125262500Y-58420000D02*
X121202500Y-58420000D01*
X125262500Y-59690000D02*
X125262500Y-58420000D01*
X128182500Y-56635000D02*
X128182500Y-61475000D01*
%TO.C,RV8*%
X142350000Y-54205000D02*
X152290000Y-54205000D01*
X142350000Y-58070000D02*
X142350000Y-54205000D01*
X142350000Y-66445000D02*
X142350000Y-62580000D01*
X142350000Y-66445000D02*
X143949000Y-66445000D01*
X145691000Y-66445000D02*
X146450000Y-66445000D01*
X148191000Y-66445000D02*
X148950000Y-66445000D01*
X150690000Y-66445000D02*
X152290000Y-66445000D01*
X152290000Y-58070000D02*
X152290000Y-54205000D01*
X152290000Y-66445000D02*
X152290000Y-62580000D01*
%TO.C,RV4*%
X143335000Y-71195000D02*
X143335000Y-74580000D01*
X143335000Y-77851000D02*
X143335000Y-139780000D01*
X143335000Y-143051000D02*
X143335000Y-146435000D01*
X145382000Y-71195000D02*
X143335000Y-71195000D01*
X147955000Y-78815000D02*
X147205000Y-79565000D01*
X147955000Y-78815000D02*
X147955000Y-138815000D01*
X147955000Y-138815000D02*
X147205000Y-138065000D01*
X148530000Y-71195000D02*
X147027000Y-71195000D01*
X148705000Y-79565000D02*
X147955000Y-78815000D01*
X148705000Y-138065000D02*
X147955000Y-138815000D01*
X148882000Y-146435000D02*
X143335000Y-146435000D01*
X149205000Y-70390000D02*
X149705000Y-70890000D01*
X149455000Y-78815000D02*
X146455000Y-78815000D01*
X149455000Y-138815000D02*
X146455000Y-138815000D01*
X149705000Y-70890000D02*
X150205000Y-70390000D01*
X150205000Y-70390000D02*
X149205000Y-70390000D01*
X152575000Y-71195000D02*
X150880000Y-71195000D01*
X152575000Y-71195000D02*
X152575000Y-75780000D01*
X152575000Y-79051000D02*
X152575000Y-138580000D01*
X152575000Y-141851000D02*
X152575000Y-146435000D01*
X152575000Y-146435000D02*
X150528000Y-146435000D01*
%TO.C,SW8*%
X103230000Y-80095000D02*
X103230000Y-82605000D01*
X103230000Y-80095000D02*
X115450000Y-80095000D01*
X103230000Y-84905000D02*
X103230000Y-87505000D01*
X103230000Y-89805000D02*
X103230000Y-92315000D01*
X115450000Y-80095000D02*
X115450000Y-82605000D01*
X115450000Y-84905000D02*
X115450000Y-87505000D01*
X115450000Y-89805000D02*
X115450000Y-92315000D01*
X115450000Y-92315000D02*
X103230000Y-92315000D01*
%TO.C,R1*%
X87182936Y-119740000D02*
X88637064Y-119740000D01*
X87182936Y-121560000D02*
X88637064Y-121560000D01*
%TO.C,R6*%
X86902936Y-95380000D02*
X88357064Y-95380000D01*
X86902936Y-97200000D02*
X88357064Y-97200000D01*
%TO.C,R8*%
X104682936Y-95380000D02*
X106137064Y-95380000D01*
X104682936Y-97200000D02*
X106137064Y-97200000D01*
%TO.C,U1*%
X127575000Y-120530000D02*
X127575000Y-141090000D01*
X127575000Y-141090000D02*
X137855000Y-141090000D01*
X130065000Y-120590000D02*
X130065000Y-141030000D01*
X130065000Y-141030000D02*
X131715000Y-141030000D01*
X133715000Y-141030000D02*
X135365000Y-141030000D01*
X135365000Y-120590000D02*
X130065000Y-120590000D01*
X135365000Y-141030000D02*
X135365000Y-120590000D01*
X137855000Y-120530000D02*
X127575000Y-120530000D01*
X137855000Y-141090000D02*
X137855000Y-120530000D01*
X131715000Y-141030000D02*
G75*
G02*
X133715000Y-141030000I1000000J0D01*
G01*
%TD*%
M02*
